<svg width="90" height="58" viewBox="0 0 90 58" fill="none" xmlns="http://www.w3.org/2000/svg">
<path d="M36.9581 30.2416L39.0037 30.4948L38.2238 31.4025L39.4017 31.3563L39.1846 31.8935L39.7065 31.8051L38.7667 33.5333L40.0488 32.8338L39.1878 34.5036L40.8673 33.394L40.795 34.0149L41.6113 33.5971L41.8585 34.5878L42.3491 34.0944C42.3467 34.2271 42.3501 34.3573 42.3592 34.485C42.3931 35.0084 42.4809 35.5267 42.6213 36.0322C42.8118 35.5645 43.0484 35.1152 43.3278 34.6906C43.4166 34.5539 43.5108 34.4207 43.6064 34.2963L43.8044 34.8309L44.42 34.2757L44.998 35.8145L45.7977 33.9206L46.6322 34.9336L46.7541 34.3854C46.8956 34.5869 47.0507 34.786 47.2111 34.9888C47.7107 35.6033 48.2622 36.1765 48.8599 36.7025C48.5428 36.0167 48.2836 35.3067 48.0848 34.5793C48.064 34.4566 48.0213 34.3421 47.996 34.2202L49.0521 34.943L48.7241 33.4476L50.8781 34.3678L49.6283 32.6947L53.5258 34.2891L50.8292 31.8466L52.1225 32.1506L51.0816 31.1591L53.5922 31.4283L51.2573 30.1013L52.4174 29.9499L51.4294 29.4364L54.471 28.8717L52.3575 28.3279L53.8369 27.8564L51.8154 27.3601L52.8332 26.809L51.805 26.5819L55.1497 24.8025L51.8476 25.2626L52.6802 24.4723L51.3068 24.6328L52.5139 23.4905L50.5766 23.8772L51.3608 22.3331L50.1326 22.9921C50.1328 22.9801 50.1308 22.9682 50.1266 22.957C50.3856 22.4103 50.5894 21.8413 50.7352 21.2578C50.3215 21.6751 49.8683 22.0538 49.3815 22.3888L49.2936 22.4488L50.2138 20.4669L48.4339 21.7558C48.5349 21.2609 48.6062 20.761 48.6473 20.2588C48.2858 20.8061 47.8824 21.3266 47.4404 21.8158L47.2947 21.9757L47.6187 19.919L46.3528 21.486L46.1617 20.6887L45.576 21.3651L45.2355 19.52L44.5308 21.258L44.0469 20.551L43.7645 21.4194L43.1674 20.6503L42.9937 21.3064C42.8784 21.2042 42.757 21.094 42.6326 20.9934C42.2513 20.6881 41.84 20.4195 41.4044 20.1914C41.5639 20.5783 41.6893 20.9779 41.7794 21.3859L40.8845 20.8431L41.2653 22.0997L40.2664 21.7143L40.497 22.4417L38.3336 21.3833L39.6779 23.2838L38.7767 23.2831L39.235 23.9765L38.4705 24.0384L38.9027 24.8263L37.4185 25.1318L38.5109 25.8486L36.77 26.2922L38.2099 26.8825L35.1931 27.9795L38.502 28.2217C38.5011 28.2292 38.5024 28.2368 38.5058 28.2436L37.122 29.0596L38.3989 29.2942L36.9581 30.2416ZM39.5545 27.6827C39.5596 27.5196 39.5571 27.3396 39.5706 27.1435C39.5937 26.9332 39.6284 26.7241 39.6746 26.5172C39.7861 26.0063 39.9838 25.5158 40.2597 25.0654C40.5811 24.5272 41.0043 24.0516 41.5069 23.6639C42.0744 23.2202 42.7303 22.8956 43.4324 22.7111C44.1798 22.5099 44.962 22.4698 45.7234 22.5936C46.5191 22.7152 47.2735 23.0116 47.9288 23.4601C48.5841 23.9087 49.123 24.4975 49.5043 25.1815C49.7007 25.5143 49.852 25.8705 49.9546 26.2415C50.0198 26.4333 50.014 26.5921 50.0755 26.7621C50.1159 26.943 50.1469 27.1258 50.1683 27.31C50.2162 28.0068 50.1139 28.7074 49.8678 29.3673C49.652 29.9517 49.3258 30.4933 48.9057 30.964C48.5555 31.3635 48.1401 31.705 47.6764 31.9748C47.4892 32.0856 47.2958 32.1861 47.0971 32.2758C46.9094 32.3527 46.7323 32.4097 46.5741 32.4681C46.3285 32.5432 46.0769 32.5979 45.8221 32.6315L45.5544 32.6768L45.8124 32.6016C46.0547 32.5283 46.2925 32.4414 46.5246 32.3412L46.9964 32.0945C47.1745 31.9875 47.3465 31.8711 47.5115 31.7457C47.9087 31.4534 48.2574 31.1038 48.5452 30.7095C48.882 30.259 49.1396 29.7583 49.3073 29.2277C49.4796 28.6316 49.5329 28.0104 49.4642 27.3976C49.447 27.2414 49.4207 27.0863 49.3855 26.933C49.3506 26.7668 49.3057 26.6028 49.2509 26.4418C49.2017 26.298 49.1436 26.1573 49.0769 26.0204C49.0098 25.8696 48.9336 25.723 48.8484 25.5812C48.7587 25.432 48.661 25.2875 48.5557 25.1483C48.5365 25.4377 48.4422 25.7186 48.2815 25.9649C48.1209 26.2112 47.899 26.415 47.6365 26.5574C47.7352 26.6546 47.8082 26.7734 47.8497 26.9039C47.8911 27.0345 47.8997 27.1731 47.8748 27.3082C47.8498 27.4433 47.7921 27.5711 47.7063 27.6811C47.6205 27.791 47.5091 27.8799 47.3814 27.9405C47.2537 28.001 47.1132 28.0314 46.9717 28.0291C46.8302 28.0269 46.6916 27.9921 46.5675 27.9275C46.4433 27.863 46.3372 27.7707 46.2578 27.6581C46.1784 27.5456 46.1281 27.416 46.111 27.2802C46.0763 27.0723 46.1233 26.8585 46.2429 26.6807C45.8959 26.5768 45.5915 26.3716 45.3713 26.0931C45.151 25.8146 45.0255 25.4762 45.0117 25.1239C44.9979 24.7717 45.0966 24.4226 45.2943 24.1242C45.4921 23.8257 45.7792 23.5923 46.1168 23.4557C45.9443 23.4037 45.7688 23.3611 45.5911 23.3284C44.9476 23.2151 44.2857 23.2278 43.6444 23.3658C43.0031 23.5039 42.3954 23.7644 41.857 24.1321C41.3915 24.4583 40.9856 24.8579 40.6566 25.3138C40.3665 25.705 40.1389 26.1358 39.9813 26.5915C39.9123 26.7821 39.8563 26.9769 39.8139 27.1744C39.7755 27.3613 39.7531 27.5319 39.7277 27.685C39.7035 27.9293 39.6952 28.1747 39.7027 28.4196L39.714 28.6792C39.714 28.6792 39.6991 28.5916 39.6702 28.4206C39.6082 28.179 39.568 27.9324 39.55 27.6835L39.5545 27.6827Z" fill="white"/>
<path d="M5.32848 41.5411L4.67298 41.5574L5.32369 41.6231C5.49353 41.6521 5.66513 41.6712 5.83758 41.6803C6.66826 41.7322 7.50227 41.7295 8.33388 41.6723C9.1741 41.5871 10.0089 41.4533 10.8337 41.2715V41.2715C11.7654 41.0628 12.6847 40.8033 13.5871 40.4941C13.9088 40.381 14.2199 40.2607 14.5173 40.1426C14.5988 40.21 14.7164 40.2983 14.8665 40.4126C14.4572 40.7525 13.9858 41.1389 13.5536 41.5368C12.8747 42.1885 12.2473 42.8886 11.6768 43.6311C11.2145 44.2369 10.9448 44.6568 10.9448 44.6568C10.9448 44.6568 11.3096 44.302 11.8969 43.8283C12.6046 43.2525 13.3578 42.7314 14.1493 42.27C14.4069 42.1182 14.6674 41.9749 14.9309 41.8401C14.8376 41.9235 14.7398 42.0077 14.6519 42.0947C13.8891 42.8557 13.2614 43.7331 12.7946 44.6907C12.701 44.8824 12.6234 45.0579 12.5624 45.2215C12.5014 45.3851 12.445 45.5209 12.4091 45.6397L12.2893 46.0072L12.4846 45.672C12.5409 45.5633 12.6275 45.4404 12.7202 45.2985C12.8248 45.1403 12.9375 44.9873 13.058 44.84C13.6761 44.0487 14.4263 43.3623 15.2771 42.8094C15.721 42.523 16.1871 42.2707 16.6712 42.0548C16.8196 41.9936 16.9634 41.9332 17.1087 41.8815L17.2076 41.9414C16.7565 42.28 16.3342 42.6531 15.9446 43.0571C15.33 43.6988 14.803 44.414 14.3769 45.1847C14.2051 45.4934 14.0825 45.7621 14.0018 45.9471L13.8792 46.2429L14.0735 45.9846C14.201 45.8277 14.3816 45.5987 14.6243 45.3502C15.7415 44.1723 17.146 43.2844 18.7064 42.7697L18.7834 42.8108L18.3189 43.1554C17.8116 43.5686 17.3334 44.0142 16.8874 44.489C16.085 45.3744 15.4227 46.3696 14.9225 47.4414C14.819 47.6573 14.7314 47.857 14.6643 48.0397C14.5972 48.2224 14.5295 48.3737 14.4935 48.5195L14.3622 48.9295L14.5683 48.5475C14.6321 48.4284 14.7248 48.2865 14.8281 48.1247C14.9314 47.9629 15.0461 47.7857 15.2077 47.6095C15.8751 46.6948 16.6822 45.883 17.6011 45.2023C18.0822 44.8478 18.5876 44.5257 19.1138 44.2382C19.5498 44.0111 19.9987 43.8086 20.4584 43.6317L20.7264 43.7532C20.5807 43.9131 20.4365 44.0818 20.3014 44.276C19.9591 44.727 19.6719 45.2145 19.4456 45.7285C19.346 45.9558 19.2607 46.1886 19.1902 46.4256C19.347 46.2364 19.5162 46.0571 19.6968 45.8889C20.0732 45.5344 20.4905 45.2231 20.9403 44.9614C21.3375 44.7337 21.7583 44.5476 22.1955 44.4061L22.2657 44.4348C22.1549 44.5798 22.0493 44.7285 21.9498 44.8851C21.6633 45.313 21.418 45.7651 21.2168 46.2356C21.0576 46.6188 20.9805 46.8798 20.9805 46.8798C20.9805 46.8798 21.1648 46.6728 21.4681 46.396C21.8314 46.066 22.2248 45.7684 22.6434 45.5071C22.9191 45.3365 23.2046 45.1812 23.4983 45.0421C23.1904 45.4356 22.911 45.849 22.6621 46.2794C22.2072 47.0793 21.8807 47.9405 21.6941 48.833C21.6313 49.1203 21.587 49.4109 21.5613 49.7032L21.5331 50.0326L21.6429 49.7164C21.7359 49.4461 21.8471 49.1817 21.9758 48.9251C22.3561 48.1565 22.8547 47.4472 23.4542 46.8216C23.9608 46.2949 24.5332 45.8313 25.158 45.4419L25.8022 45.6349C25.7529 45.7018 25.6983 45.7652 25.6542 45.8358C25.1831 46.5301 24.853 47.3038 24.6817 48.1151C24.6492 48.2677 24.627 48.4221 24.6152 48.5773C24.6005 48.7105 24.5865 48.8211 24.5839 48.9162L24.5732 49.2111L24.6663 48.9338C24.7 48.8265 24.7415 48.7215 24.7905 48.6197C24.8419 48.4847 24.904 48.3536 24.9762 48.2276C25.3293 47.5572 25.8107 46.9569 26.3946 46.4588C26.5944 46.2913 26.8053 46.1366 27.0258 45.9957C27.4314 46.1029 27.8507 46.2077 28.2783 46.3066C28.1115 46.6619 27.9707 47.0277 27.8568 47.4015C27.6189 48.2002 27.515 49.0292 27.549 49.8569C27.5578 50.1229 27.5855 50.3879 27.632 50.6499L27.6817 50.9435C27.6817 50.9435 27.6957 50.833 27.7152 50.6448C27.7434 50.3881 27.7892 50.1334 27.8521 49.8822C28.1437 48.6533 28.7729 47.5199 29.6729 46.6025L30.1164 46.6852C30.0357 46.8702 29.961 47.0632 29.8999 47.2539C29.6555 47.9947 29.5341 48.7671 29.5405 49.5421C29.538 49.7898 29.5549 50.0372 29.5911 50.282C29.6208 50.4573 29.6379 50.5581 29.6379 50.5581L29.6841 50.2798C29.7209 50.0415 29.7763 49.806 29.8496 49.5754C30.0532 48.8905 30.3687 48.2403 30.784 47.6497C30.9707 47.385 31.178 47.1344 31.404 46.9C31.9216 46.9791 32.4475 47.0524 32.9856 47.1145C32.9531 47.3365 32.9237 47.5759 32.9094 47.7947C32.8602 48.5004 32.9017 49.2082 33.0328 49.902C33.0873 50.2095 33.1621 50.5131 33.2568 50.8109C33.2646 50.5049 33.2908 50.1994 33.3352 49.8959C33.4304 49.2477 33.6065 48.6123 33.8597 48.0035C33.9602 47.7505 34.074 47.5024 34.2007 47.2604C34.7744 47.3121 35.3556 47.3534 35.9482 47.3793C35.8861 47.669 35.8391 47.9614 35.8071 48.2553C35.7353 48.9605 35.7552 49.6706 35.8663 50.369C35.9132 50.6773 35.9805 50.9821 36.0676 51.2817C36.0799 50.9738 36.1137 50.6668 36.1687 50.3628C36.3434 49.3173 36.7415 48.3161 37.3376 47.4235L38.2213 47.4316C38.2418 47.6324 38.2755 47.8315 38.3223 48.0277C38.3579 48.2029 38.4043 48.3757 38.4613 48.5453C38.5655 48.1546 38.7214 47.7781 38.9252 47.4252C39.5534 47.4134 40.1847 47.3922 40.8327 47.3591C40.8292 47.7786 40.855 48.1975 40.9097 48.613C41.0125 49.3424 41.207 50.056 41.489 50.7378C41.5793 50.9585 41.6813 51.1745 41.7946 51.3849L41.9232 51.6201C41.8574 51.3065 41.8114 50.989 41.7855 50.6695C41.7337 49.9824 41.7735 49.2908 41.9038 48.6115C41.9883 48.1502 42.1129 47.6962 42.2762 47.2544C42.6997 47.2187 43.1269 47.1779 43.5625 47.1312L44.4057 50.2077L44.821 46.9812C45.3474 46.8921 45.8874 46.8277 46.4229 46.737C46.6681 47.0649 46.8942 47.4059 47.1001 47.7585C47.571 48.5547 47.9574 49.3955 48.2535 50.2684C48.2535 50.2684 48.2644 49.9194 48.2412 49.3688C48.2119 48.714 48.1359 48.0625 48.0137 47.4189C47.9595 47.0989 47.8826 46.7828 47.8041 46.485L48.5348 46.3612C48.6758 46.4771 48.8176 46.5974 48.9585 46.7404C49.3507 47.0869 49.6913 47.4843 49.9709 47.9216C50.0534 48.0689 50.1133 48.2274 50.1486 48.3919C50.165 48.4567 50.1762 48.5226 50.182 48.5892C50.2082 48.5254 50.2299 48.4599 50.2468 48.3933C50.2857 48.2089 50.2962 48.0202 50.2781 47.8335C50.1881 47.2737 50.022 46.7288 49.7842 46.2128L49.7428 46.1341L50.6423 45.9322C51.0019 46.2019 51.3417 46.4954 51.6594 46.8105C52.162 47.3443 52.6051 47.9281 52.9815 48.5524C53.1556 48.8435 53.3139 49.1432 53.4557 49.4505C53.4185 49.1099 53.3613 48.7718 53.2843 48.438C53.1007 47.6899 52.8338 46.9641 52.4881 46.2733C52.3604 46.0154 52.216 45.7693 52.0724 45.5277L53.0741 45.2678C53.8064 45.8018 54.3672 46.5253 54.693 47.3563C54.7701 47.5482 54.8317 47.7458 54.8771 47.9473C54.9024 48.0963 54.9165 48.1796 54.9165 48.1796L54.946 47.9401C54.9741 47.7274 54.9847 47.513 54.9774 47.2991C54.9554 46.6228 54.8063 45.9575 54.5375 45.3356C54.476 45.1927 54.4061 45.0558 54.3362 44.9188L55.2578 44.6545C55.319 44.6847 55.3847 44.7142 55.4571 44.756C55.887 44.9781 56.2861 45.2513 56.6452 45.5693C57.023 45.9007 57.3551 46.2778 57.6336 46.6914C57.7676 46.8842 57.8889 47.085 57.9969 47.2927C57.9864 47.0536 57.9602 46.8156 57.9182 46.5801C57.8266 46.0453 57.6678 45.5241 57.4453 45.028C57.3069 44.718 57.1454 44.4183 56.962 44.1314L57.7058 43.8927C57.9626 44.0914 58.2 44.3122 58.4152 44.5526C58.7716 44.9492 59.0696 45.3917 59.3009 45.868C59.4093 46.0939 59.5017 46.3268 59.5776 46.5651C59.5995 46.3106 59.6046 46.0552 59.5929 45.8005C59.5684 45.2169 59.4597 44.6404 59.2701 44.0877C59.1943 43.8743 59.1074 43.6648 59.0097 43.46L60.2971 43.012C60.6829 43.2605 61.0434 43.5436 61.374 43.8576C61.6521 44.1216 61.8209 44.3185 61.8209 44.3185C61.7694 44.1095 61.7065 43.9034 61.6323 43.7012C61.5087 43.352 61.3576 43.0128 61.1803 42.6866L62.3262 42.258C62.8516 42.4369 63.3585 42.6619 63.8406 42.9304C63.6498 42.581 63.4368 42.2437 63.2027 41.9202C63.7326 41.7133 64.2571 41.5027 64.7718 41.2893C64.942 41.3786 65.1033 41.4825 65.254 41.5999C65.4067 41.715 65.5499 41.8415 65.6822 41.9782C65.6371 41.7887 65.5776 41.6029 65.504 41.4223C65.4575 41.3129 65.3943 41.1883 65.3259 41.0601C72.3981 38.1161 79.1723 34.5305 85.557 30.352L87.3904 29.1037L85.3054 28.3702C83.3179 27.6608 82.938 27.5402 76.7259 22.7264C75.1917 21.5344 73.5889 20.427 71.9251 19.4094C72.1794 19.1978 72.4083 18.9594 72.6077 18.6986C72.7166 18.5569 72.8146 18.4076 72.9009 18.2522C72.7467 18.3338 72.5874 18.406 72.424 18.4682C72.0797 18.5954 71.7195 18.6761 71.3535 18.7081C71.1435 18.7257 70.9325 18.7252 70.723 18.7067C70.4544 18.5538 70.2039 18.3978 69.914 18.2576C70.1373 18.0349 70.3353 17.7897 70.5044 17.5263C70.788 17.0844 70.9763 16.5923 71.0578 16.08C71.0825 15.9197 71.0941 15.7579 71.0926 15.5961C71.0733 15.4822 71.0629 15.4208 71.0629 15.4208L70.9875 15.5824C70.9196 15.7214 70.8408 15.8553 70.7519 15.983C70.4948 16.3487 70.1628 16.6597 69.7769 16.8966C69.4235 17.1141 69.0291 17.2607 68.6174 17.3274C68.4929 17.3503 68.3665 17.3611 68.24 17.3598L68.1447 17.3759L67.7899 17.2106C68.0386 16.9261 68.2538 16.6159 68.4316 16.2858C68.7232 15.7665 68.9061 15.1976 68.9698 14.612C68.9872 14.4285 68.9903 14.2441 68.9791 14.0604L68.9449 13.8588L68.8793 14.0502C68.8206 14.2188 68.7467 14.3822 68.6586 14.5385C68.4188 14.9738 68.0932 15.36 67.7003 15.6749C67.3074 15.9898 66.855 16.2272 66.369 16.3736C66.2732 16.3955 66.1762 16.4119 66.0786 16.4228L66.0287 16.4042C66.215 16.1378 66.3799 15.8582 66.522 15.5677C66.7798 15.0426 66.9512 14.4826 67.0299 13.9081C67.0671 13.6575 67.0821 13.4046 67.0745 13.152C66.9752 13.3835 66.857 13.6071 66.7209 13.8206C66.2051 14.68 65.4388 15.3747 64.5193 15.8167L63.7929 15.5519C64.1436 15.1526 64.4602 14.7265 64.7396 14.2779C65.1352 13.6388 65.4429 12.953 65.6546 12.2383C65.7372 11.9538 65.7893 11.7105 65.8216 11.5427C65.8539 11.3749 65.8701 11.2775 65.8701 11.2775L65.743 11.5199C65.6609 11.6691 65.5424 11.8785 65.3783 12.1228C64.6062 13.2641 63.5454 14.1969 62.2983 14.8312L62.0181 14.9688L61.4532 14.803L61.5944 14.6167C61.9514 14.0997 62.2162 13.5289 62.3775 12.9286C62.4272 12.7367 62.4644 12.5422 62.489 12.3461L62.5131 12.1301L62.4059 12.3241C62.319 12.4989 62.2179 12.6668 62.1034 12.8262C61.7731 13.2771 61.3661 13.6709 60.9001 13.9904C60.6298 14.1689 60.3433 14.3231 60.0443 14.4509C59.5866 14.3391 59.1257 14.2368 58.6664 14.1432C58.7485 13.9941 58.8337 13.8354 58.9098 13.6782C59.1678 13.1667 59.3904 12.6394 59.5762 12.1C59.7174 11.6657 59.7893 11.374 59.7893 11.374C59.3013 12.006 58.7516 12.5914 58.1479 13.1219C57.8451 13.3867 57.527 13.6348 57.1953 13.8648C56.7881 13.8031 56.3808 13.7413 55.9712 13.6934C56.1174 13.2079 56.2271 12.7132 56.2994 12.2131C56.389 11.5543 56.4093 10.8892 56.36 10.2279C56.3117 9.69505 56.2433 9.34594 56.2433 9.34594C56.2433 9.34594 56.19 9.69312 56.0562 10.1982C55.8896 10.8007 55.6585 11.3854 55.3665 11.9427C55.0843 12.4826 54.7452 12.9933 54.3548 13.4667L54.3161 13.5138L53.5792 13.4628C53.5937 13.1628 53.5962 12.8467 53.5798 12.5294C53.5574 11.9217 53.4862 11.3172 53.367 10.7213C53.2853 10.2392 53.1774 9.93281 53.1774 9.93281C53.1774 9.93281 53.1484 10.2578 53.0608 10.7326C52.9589 11.3027 52.8105 11.8645 52.6171 12.4129C52.4976 12.743 52.3609 13.0671 52.2073 13.384C51.7712 13.3722 51.3274 13.3707 50.8889 13.3729C50.0102 12.4663 49.3175 11.4058 48.8469 10.2469C48.6331 9.72856 48.5291 9.36291 48.5291 9.36291C48.5291 9.36291 48.5136 9.73977 48.5503 10.3152C48.5981 11.0253 48.7172 11.7284 48.9059 12.4147C49.0024 12.7636 49.1207 13.1042 49.246 13.4302L48.9957 13.441C47.9538 12.456 47.1274 11.2778 46.5647 9.97516C46.4171 9.64047 46.289 9.29791 46.1808 8.94905C46.1908 9.31821 46.2205 9.68641 46.2696 10.0522C46.3803 10.8767 46.5846 11.6858 46.879 12.4649C47.0212 12.8442 47.1854 13.2153 47.3707 13.5765L47.1528 13.6134L46.7613 13.3415C45.295 12.2892 44.1043 10.9199 43.2826 9.34069C43.1098 9.00926 42.9867 8.72351 42.8982 8.50404L42.7691 8.18323C42.7691 8.18323 42.7899 8.30595 42.8263 8.52073C42.8627 8.7355 42.9161 9.05108 42.9792 9.42364C43.2011 10.3373 43.5296 11.2225 43.9583 12.0623C44.2864 12.6936 44.6681 13.297 45.0995 13.8664L44.9679 13.8887L44.8985 13.8373C44.0798 13.2248 43.335 12.5252 42.6779 11.7516C42.0079 10.9627 41.4317 10.1031 40.96 9.1885C40.7608 8.81193 40.6167 8.48465 40.5214 8.25281L40.3713 7.89046L40.4374 8.28056C40.4789 8.52601 40.5391 8.88104 40.6701 9.29621C40.9505 10.3217 41.3469 11.313 41.8523 12.2522C42.2228 12.9368 42.6461 13.593 43.1185 14.2155C42.9415 14.2454 42.7645 14.2754 42.5965 14.3309L42.2021 14.0145C41.8296 13.7015 41.4755 13.3686 41.1416 13.0173C40.76 12.6039 40.4042 12.1688 40.0759 11.7144C39.456 10.8419 38.9551 9.89478 38.5855 8.89628C38.5083 8.68843 38.4432 8.49657 38.3953 8.32432C38.3475 8.15207 38.2942 8.00327 38.2666 7.89523L38.1628 7.50252C38.1628 7.50252 38.1873 7.64716 38.1849 7.90907C38.1881 8.03779 38.1992 8.1862 38.2183 8.35429C38.2374 8.52239 38.2625 8.72555 38.2935 8.96377C38.4596 10.0665 38.7705 11.1426 39.2187 12.1661C39.4662 12.7213 39.7493 13.2606 40.0664 13.781C40.3012 14.147 40.5322 14.4912 40.7611 14.7951C40.4639 14.8785 40.1673 14.9648 39.8712 15.054C39.6092 14.9098 39.3585 14.7474 39.1213 14.5678C38.6725 14.2335 38.2027 13.8577 37.7458 13.4481C36.9055 12.7315 36.1154 11.9616 35.3807 11.1434C34.7712 10.4666 34.4038 9.97874 34.4038 9.97874C34.4038 9.97874 34.669 10.5245 35.1292 11.3122C35.6989 12.2826 36.3326 13.2159 37.0263 14.1065C37.4081 14.5964 37.8103 15.0694 38.1975 15.5088L38.2819 15.5937L37.5834 15.8518C37.1058 15.6383 36.6457 15.3907 36.2067 15.111C35.5038 14.6641 34.8573 14.1397 34.2801 13.5481C34.0374 13.3007 33.8514 13.0842 33.7089 12.9325L33.5086 12.6869C33.5086 12.6869 33.5589 12.791 33.6362 12.9718C33.7136 13.1526 33.8473 13.4185 34.0202 13.7229C34.4446 14.479 34.9573 15.1849 35.5483 15.8267C35.7427 16.0373 35.95 16.2411 36.1603 16.4355L35.9037 16.5466C34.9846 15.9681 34.0992 15.3413 33.2515 14.6692C32.3578 13.9568 31.5046 13.1983 30.6957 12.3968C30.0333 11.7379 29.6144 11.2768 29.6144 11.2768C29.6144 11.2768 29.9333 11.809 30.4608 12.5808C31.1073 13.5304 31.8076 14.4444 32.5585 15.3186C33.1444 16.0219 33.7895 16.6882 34.3683 17.2665L33.8746 17.5214C33.4198 17.4001 32.8927 17.2369 32.3936 17.0464C31.8944 16.8558 31.1787 16.5713 30.5695 16.2822C29.4431 15.7431 28.3742 15.0997 27.3776 14.361C26.962 14.0571 26.6355 13.7833 26.4071 13.592L26.0512 13.2826C26.0512 13.2826 26.1619 13.4126 26.3464 13.6474C26.5309 13.8821 26.8142 14.2039 27.1713 14.5762C28.0465 15.5015 29.0127 16.342 30.0567 17.0859C30.63 17.4938 31.2306 17.87 31.8101 18.2047L32.232 18.4354L31.7828 18.7053C31.4972 18.6725 31.1911 18.6297 30.8791 18.5788C30.2343 18.4597 29.5997 18.2959 28.9801 18.0889C27.7994 17.6908 26.6915 17.118 25.6953 16.3908C25.5076 16.258 25.3276 16.1154 25.1561 15.9636C24.9932 15.8289 24.8522 15.713 24.7459 15.6092L24.406 15.2836L24.6845 15.6602C24.7711 15.7853 24.8878 15.9234 25.0272 16.0846C25.1743 16.2677 25.3317 16.4427 25.4988 16.6089C26.3932 17.5382 27.4322 18.3264 28.579 18.9459C29.1122 19.2353 29.6652 19.4896 30.2345 19.707L29.7201 20.0601L29.1131 19.7842C28.6375 19.5672 28.0941 19.2805 27.5304 18.9566C26.9667 18.6328 26.3835 18.2491 25.8133 17.8317C24.7692 17.0661 23.8066 16.2022 22.9395 15.2524C22.5748 14.8633 22.2969 14.5181 22.1064 14.2753L21.8007 13.8762C21.8007 13.8762 21.8879 14.0328 22.0292 14.2884C22.1706 14.544 22.3938 14.9525 22.6842 15.3993C23.396 16.5126 24.2227 17.5524 25.152 18.5028C25.6606 19.0253 26.2019 19.5198 26.7304 19.9668C27.259 20.4138 27.7764 20.7951 28.2358 21.1096L28.0539 21.2486L27.8855 21.1915C27.2021 20.96 26.4282 20.6357 25.6046 20.2657C24.781 19.8957 23.9341 19.4439 23.1041 18.9533C21.5728 18.0455 20.1424 16.9886 18.835 15.7987C18.5651 15.5559 18.3209 15.3267 18.1174 15.1177C17.914 14.9087 17.7255 14.7332 17.5589 14.5765L17.1023 14.0858L17.4923 14.6239C17.6157 14.8014 17.7753 15.0269 17.9553 15.2353C18.1353 15.4438 18.3469 15.7281 18.5939 16.0289C19.7585 17.397 21.0649 18.6456 22.493 19.7557C23.2819 20.3615 24.0913 20.9233 24.904 21.4214C25.5046 21.7705 26.0872 22.1228 26.6246 22.4015L26.3471 22.6378L26.1084 22.5791C25.2951 22.37 24.494 22.1204 23.7082 21.8313C22.8035 21.4916 21.9184 21.1057 21.0568 20.6752C19.4333 19.8505 17.9138 18.8494 16.5271 17.691C16.2391 17.4513 15.982 17.2288 15.7642 17.0177C15.5464 16.8066 15.345 16.6378 15.2057 16.4765L14.7271 15.994L15.145 16.5319C15.2768 16.7035 15.4463 16.9047 15.6444 17.1372C15.8425 17.3696 16.0677 17.6246 16.3239 17.8968C17.5897 19.2448 19.0119 20.4471 20.5629 21.4803C21.3979 22.0322 22.2631 22.5403 23.155 23.0026C23.8101 23.3425 24.4299 23.6118 25.0075 23.8521L24.8506 24.0004C24.4492 23.9737 24.0064 23.9225 23.528 23.8547C22.9482 23.7569 22.3747 23.6282 21.8101 23.4693C20.7348 23.1623 19.7027 22.7316 18.7357 22.1865C18.3342 21.9659 18.0136 21.7542 17.7918 21.6024L17.4433 21.3639L17.7372 21.6658C17.9963 21.9341 18.2701 22.1887 18.5573 22.4286C19.4341 23.1756 20.4002 23.8186 21.4355 24.3444C21.6551 24.456 21.8823 24.5573 22.1043 24.6549C21.623 24.5696 21.1365 24.4536 20.6478 24.3245C19.7175 24.0664 18.8052 23.7526 17.9163 23.3849C17.0341 23.0016 16.1798 22.5619 15.3591 22.0685C14.6331 21.6296 13.9381 21.1449 13.2786 20.6174L12.8624 20.2821L12.5005 19.9646C12.2751 19.7638 12.0768 19.5855 11.9435 19.4322L11.4558 18.9512L12.0248 19.5267C12.1573 19.7026 12.3306 19.8987 12.5325 20.126L12.8557 20.4906C12.974 20.6103 13.0991 20.7425 13.234 20.8774C13.8345 21.4911 14.4776 22.0646 15.1587 22.5939C15.9497 23.2015 16.7816 23.758 17.649 24.2598C18.5301 24.7525 19.4419 25.1929 20.3793 25.5783C21.1494 25.8799 21.9356 26.1426 22.7348 26.3652L22.558 26.562L22.3667 26.5628C21.5318 26.5601 20.6983 26.5086 19.8709 26.4084C18.9157 26.2811 17.9712 26.0916 17.0438 25.8411C16.1121 25.5829 15.2011 25.261 14.3177 24.8781C13.5403 24.5379 12.789 24.1453 12.0693 23.7033L11.6158 23.4239L11.219 23.1485C10.9708 22.9786 10.7497 22.8312 10.5861 22.692L10.0477 22.2692L10.5308 22.751C10.6837 22.91 10.8813 23.0839 11.1112 23.2839C11.222 23.3869 11.3426 23.4927 11.4738 23.6058C11.605 23.7188 11.7491 23.8252 11.8946 23.9403C12.5624 24.4698 13.2682 24.9529 14.0069 25.3861C14.8695 25.8973 15.7695 26.3475 16.7001 26.7335C17.2022 26.9415 17.7376 27.1259 18.2602 27.2899C17.4985 27.1754 16.7075 27.0253 15.9226 26.8291C14.9726 26.5907 14.039 26.2972 13.1267 25.95C12.3255 25.6377 11.5457 25.2774 10.7918 24.871L10.3148 24.6182L9.89447 24.3692C9.62961 24.2112 9.37828 24.0779 9.21615 23.9476L8.63825 23.5675L9.18041 24.0122C9.34477 24.1557 9.55971 24.3222 9.80105 24.5068L10.1925 24.8057L10.6421 25.1173C11.3546 25.6179 12.0993 26.0746 12.8718 26.4846C13.7632 26.9566 14.6839 27.3758 15.6287 27.74C16.5849 28.0965 17.562 28.3991 18.5553 28.6466C19.1189 28.7766 19.6606 28.8878 20.1714 28.9816C19.6179 29.0213 19.0009 29.0446 18.3492 29.0558C17.4672 29.0509 16.5865 29.0029 15.7105 28.912C14.0574 28.7315 12.4318 28.3764 10.8626 27.8529C10.5371 27.7502 10.2434 27.6421 9.9851 27.5506C9.72684 27.4591 9.48747 27.3689 9.31461 27.2854L8.74082 27.0399L9.26221 27.3619C9.4335 27.4637 9.64935 27.5804 9.89466 27.7057C10.14 27.831 10.4094 27.9883 10.7279 28.1327C12.2575 28.8697 13.8667 29.4438 15.5277 29.8447C16.1887 29.9988 16.8536 30.1207 17.5109 30.2257C16.6496 30.322 15.7315 30.4144 14.8174 30.4475C13.1848 30.5388 11.5513 30.3579 9.98833 29.9127C9.46805 29.757 8.96471 29.5539 8.48505 29.3061C8.30765 29.2234 8.18091 29.1367 8.08808 29.0848L7.94848 29.0047L8.07744 29.1046C8.15813 29.1676 8.27728 29.2647 8.44098 29.3767C8.88654 29.6899 9.36234 29.9611 9.86198 30.1866C11.4092 30.8551 13.0664 31.2607 14.7616 31.3857C15.9708 31.4966 17.1788 31.5174 18.2447 31.5262C17.8543 31.6465 17.4351 31.7626 16.9872 31.8745C15.3909 32.2418 13.7462 32.3543 12.1184 32.2076C11.3989 32.1423 10.6862 32.0249 9.98605 31.8564L9.54337 31.751L9.14987 31.6328C8.90365 31.5573 8.68689 31.4903 8.51172 31.4207L7.96351 31.216L8.47747 31.4942C8.6382 31.5887 8.8458 31.6843 9.0836 31.7928L9.45878 31.9682L9.88916 32.1388C10.579 32.4067 11.2885 32.6256 12.0122 32.7937C12.853 32.9811 13.7077 33.1076 14.5693 33.1722C15.2192 33.213 15.8715 33.2169 16.5227 33.1841C15.9973 33.4173 15.447 33.6413 14.8734 33.8376C14.1893 34.0627 13.4935 34.2513 12.7889 34.4026C12.1661 34.5303 11.5372 34.6263 10.9048 34.6901C10.628 34.737 10.371 34.7354 10.1441 34.7468C9.91729 34.7582 9.71463 34.7745 9.5506 34.7707L9.00476 34.7729L9.51635 34.8441C9.67956 34.8706 9.87907 34.8909 10.1066 34.911C10.3341 34.9311 10.5819 34.9612 10.8782 34.9742C11.5281 35.0102 12.18 35.0127 12.8309 34.9816C13.582 34.9434 14.3307 34.8633 15.0732 34.7416V34.7416C14.8128 34.8308 14.5525 34.92 14.2861 35.0012C12.8726 35.4388 11.4229 35.7537 9.95442 35.9422C9.35537 36.0437 8.84122 36.0676 8.48509 36.0874L7.9263 36.1234L8.48483 36.1686C8.84005 36.1986 9.35403 36.2288 9.96711 36.2376C11.4841 36.263 13.002 36.1568 14.5025 35.9204L14.793 35.8712L14.5916 35.9504C13.4907 36.3405 12.3499 36.6123 11.1902 36.7609C10.8044 36.8155 10.4162 36.8512 10.0271 36.8677L9.5644 36.892L10.0042 36.9528C10.2861 36.9907 10.6904 37.0349 11.1802 37.0602C11.8523 37.0952 12.5264 37.0894 13.1987 37.043C12.8724 37.1839 12.5402 37.3168 12.2033 37.4505C11.0455 37.8974 9.86398 38.2827 8.66397 38.6045C7.67205 38.8672 6.99956 39.0037 6.99956 39.0037C6.99956 39.0037 7.68228 38.9827 8.71297 38.8938C9.9778 38.7796 11.2358 38.5966 12.481 38.3458L12.6625 38.3151L12.1554 38.5182C10.8422 39.0295 9.48728 39.4309 8.10561 39.7181C7.53295 39.8376 7.05272 39.8964 6.71688 39.9533L6.19044 40.0425L6.72414 40.0513C7.06508 40.0521 7.55423 40.0459 8.11904 40.0179C9.56501 39.94 11.0028 39.7418 12.4164 39.4254C12.7205 39.3739 13.0179 39.2829 13.3122 39.2015L13.085 39.3211C12.2727 39.7193 11.4376 40.0715 10.584 40.376C9.05436 40.9589 7.45389 41.3437 5.82447 41.5202C5.65952 41.5353 5.49397 41.5422 5.32848 41.5411ZM56.3455 40.3538L56.9747 39.7963C58.1516 38.692 59.1629 37.4338 59.9785 36.0593C60.3574 35.4311 60.6948 34.7806 60.9886 34.1117C61.1453 33.7966 61.2371 33.4564 61.362 33.1467C61.487 32.837 61.5961 32.5164 61.6674 32.1932C61.7387 31.8701 61.8182 31.568 61.8865 31.2544C61.9675 30.9636 62.0298 30.6685 62.073 30.3706C62.1375 29.7871 62.236 29.2383 62.2603 28.7202C62.2846 28.2021 62.2861 27.7149 62.286 27.2731C62.2858 26.8312 62.21 26.4112 62.1757 26.0428L62.1206 25.5246C62.0938 25.3668 62.0686 25.2178 62.0463 25.0863C61.9996 24.8102 61.9368 24.5773 61.8951 24.386L61.7706 23.8164C61.7706 23.8164 61.773 24.0234 61.7733 24.4111C61.7742 24.6094 61.7794 24.861 61.7831 25.1309C61.8061 25.2667 61.7905 25.4227 61.7847 25.5815C61.7789 25.7403 61.7565 25.9109 61.7446 26.0888C61.7125 26.4504 61.6901 26.8419 61.6449 27.2644C61.5998 27.6869 61.4955 28.1464 61.4101 28.6343C61.3246 29.1222 61.1522 29.6203 61.0137 30.1532C60.9106 30.5089 60.7711 30.8707 60.6286 31.242C61.794 27.1569 61.2591 22.8107 59.1392 19.1401C60.1211 19.4247 61.2252 19.7968 62.3223 20.2106C63.7191 20.7523 65.086 21.362 66.4179 22.0374C67.5192 22.5858 68.2323 22.9926 68.2323 22.9926C68.2323 22.9926 67.5867 22.4887 66.5812 21.7888C65.5756 21.0889 64.1874 20.1968 62.7392 19.3916C62.2652 19.1292 61.7837 18.8771 61.3135 18.6366C62.1141 18.8707 62.8799 19.1197 63.6078 19.3932C65.0131 19.8902 66.2739 20.4431 67.3912 20.9483L68.9205 21.7082L70.2217 22.3896C70.9907 22.823 71.6194 23.1448 72.0306 23.3953L72.6676 23.7383L72.1514 23.2261C71.81 22.8916 71.3042 22.4137 70.6256 21.8252L69.481 20.8829C69.1235 20.5917 68.72 20.3039 68.2946 19.9972C70.7355 21.3064 73.0532 22.8176 75.222 24.5141C79.4295 27.7737 81.0911 28.9847 82.4173 29.6754C80.9145 30.6153 78.5158 32.054 75.486 33.6809L75.9042 33.3936C76.9859 32.6964 77.8967 32.0372 78.6407 31.4963C79.3848 30.9555 79.9577 30.5068 80.3502 30.2059L80.9369 29.7278C80.9369 29.7278 79.9987 30.2248 78.3623 31.0655C77.9542 31.2744 77.5022 31.4998 76.9979 31.7475C76.4937 31.9952 75.9697 32.2643 75.3912 32.5426C74.8128 32.821 74.2056 33.1222 73.5507 33.418C72.8959 33.7137 72.231 34.0608 71.5096 34.3769C70.0802 35.0337 68.5238 35.7122 66.8758 36.4286C66.0462 36.7675 65.1976 37.1322 64.3226 37.4788C63.4476 37.8253 62.5726 38.1719 61.6424 38.5233L58.8496 39.5374L56.3455 40.3538ZM38.506 39.7681L38.465 38.3682L37.4844 39.1114L38.177 36.4196L36.3795 38.2931C36.3639 38.2011 36.4027 38.0998 36.4182 37.998C36.4965 37.5423 36.6192 37.0943 36.7845 36.66C36.3502 36.9147 35.9437 37.2117 35.5714 37.5463L35.5229 37.5905L35.5407 37.4478C35.5982 37.0386 35.6856 36.6335 35.8023 36.2357C35.4169 36.4591 35.0489 36.7098 34.7015 36.9857V36.9857L35.5985 34.895L33.7556 36.3073L33.7792 36.2537C33.9694 35.8468 34.1881 35.4527 34.4338 35.0742C33.9956 35.2121 33.5666 35.3766 33.1493 35.5668L33.2286 35.346C33.359 35.01 33.5126 34.6828 33.6883 34.3663C33.3118 34.4316 32.9403 34.5231 32.5769 34.6402C32.4816 34.6564 32.3907 34.6988 32.2984 34.7325C32.4237 34.5625 32.5663 34.385 32.7143 34.2112C33.0723 33.7819 33.455 33.3724 33.8604 32.9846C33.2881 33.105 32.7231 33.2579 32.1686 33.4424C32.0354 33.483 31.903 33.528 31.7713 33.5773L31.7668 33.551C31.9203 33.2934 32.0432 33.0199 32.133 32.7361C31.8532 32.7657 31.5713 32.7651 31.2924 32.7341L31.1299 32.7121L31.9588 31.6248L31.0953 31.6809L31.1992 31.5776C31.5482 31.2442 31.9178 30.9317 32.3058 30.6417C31.8008 30.6402 31.2958 30.6685 30.7936 30.7265L30.7301 30.7373L31.8347 29.955L30.2566 29.8436L32.4382 28.6941L30.7253 28.3935L31.5471 27.8981L30.7657 27.5571L33.1794 27.3647L31.3953 26.6163C31.747 26.5073 32.0892 26.3709 32.4187 26.2085C32.1056 26.0655 31.8055 25.8976 31.5214 25.7067L33.2098 25.3666L32.4493 24.8732L33.6604 24.8845L32.8203 24.1972L34.5785 24.2962L33.7538 23.5341L35.3529 23.7142L34.0957 22.7413L35.6114 23.0076L34.9578 22.1805L36.4045 22.2601L35.8643 21.4137L37.3743 22.0597L36.6359 20.7871L37.6551 20.9887L37.5067 20.3059C37.6004 20.3352 37.6986 20.3636 37.7983 20.4008C38.1279 20.521 38.4463 20.6677 38.7502 20.8393C38.7107 20.5166 38.6472 20.1974 38.5604 19.884L39.7212 20.4809L39.3937 19.3461L40.6386 19.8882L40.7267 19.0302L41.5967 19.8116L41.6958 18.7984L42.2618 19.6043L42.3224 18.3631L42.9853 19.3555L43.4909 18.4267L44.0037 19.5798L44.5181 18.2618L44.9874 19.2689L45.5602 17.9095L45.8745 18.6904L46.4754 17.7454L46.915 18.6043L47.3745 17.9268L47.759 18.7635L48.3937 17.8804L48.8755 20.0082L49.6681 18.1831L49.9331 19.527L50.7628 18.1961L51.1525 19.2844L52.0067 18.3462L51.9749 19.5644L53.1961 18.5054L52.8832 19.6901L53.9832 19.1837C53.9178 19.321 53.8485 19.4635 53.7846 19.6096C53.4909 20.2655 53.2448 20.94 53.048 21.628C53.5199 21.1041 54.0275 20.6114 54.5676 20.1533C54.792 19.962 55.0231 19.7831 55.239 19.6248L55.1403 20.0338L55.8395 19.8071L55.1847 21.0407L56.7154 20.1548L55.3208 21.7887L57.4839 20.9714L56.3296 22.1499L58.1004 21.8274L57.1705 22.8145L58.6154 22.7457C58.6236 22.7939 58.631 22.8377 58.6384 22.8815L56.0639 24.2193L58.7161 24.1399L57.2564 24.838L59.1265 25.157L58.9016 25.2627C58.3262 25.5315 57.7155 25.7567 57.7155 25.7567C57.7155 25.7567 58.2674 25.9833 58.8746 26.1781L58.0055 26.5597L58.7064 27.0317L56.6992 27.2814L58.5787 27.9866L57.7268 28.194L58.5555 28.8697L57.7536 29.0416L58.2819 29.5699L56.6639 29.6365L58.4024 30.6947L57.1996 30.7045L57.9359 31.441L56.8208 31.445L57.572 32.2421L55.9528 31.7228L56.5833 32.6891L55.5634 32.4831L56.5686 33.7872L55.4594 33.5783L56.0789 34.6727L55.0366 34.3623L55.6961 35.4995L54.1928 34.893L54.748 35.7728L53.526 35.1457L54.3704 36.6033L53.5882 36.2849L53.765 36.805L52.5099 35.8994L53.0191 37.2244L51.9402 36.5324L52.3405 37.8488L51.7037 37.4517L51.7303 38.6285L50.4398 37.1833L50.7798 39.1908C50.6397 39.0251 50.483 38.8443 50.3187 38.6737C49.9554 38.2891 49.571 37.9237 49.167 37.5792C49.278 38.0756 49.3629 38.5774 49.4216 39.0826C49.4438 39.2141 49.4646 39.3369 49.4627 39.4634L48.0405 37.8196L48.2152 39.7604L47.5397 38.9144L47.3718 39.9077L46.3096 37.4951L46.02 40.1682L45.2299 38.2595L44.6497 40.8151L43.772 38.3892L43.3191 40.5941C43.2842 40.5244 43.2534 40.4529 43.2268 40.3798C43.0749 40.0123 42.9545 39.6331 42.8667 39.2459C42.6492 39.5761 42.4564 39.9207 42.2896 40.277L41.782 37.9688L40.9079 40.4434C40.8555 40.2789 40.8146 40.1111 40.7855 39.9411C40.6987 39.4841 40.6606 39.0192 40.6719 38.5536C40.3454 38.9379 40.0623 39.3547 39.8274 39.7968L39.746 39.9503C39.72 39.7969 39.6933 39.6391 39.7021 39.4708C39.6748 38.9669 39.6875 38.4613 39.7401 37.9584C39.3807 38.3589 39.055 38.7865 38.7662 39.237C38.6711 39.447 38.5806 39.6021 38.494 39.7521L38.506 39.7681ZM16.6435 38.8312C17.7418 36.8548 18.947 34.935 20.2538 33.0797C20.1284 33.3038 20.0166 33.5257 19.8987 33.7395L19.2664 35.0775C19.0723 35.4756 18.9283 35.8381 18.7912 36.1589L18.4614 36.9678C18.2891 37.4117 18.1932 37.6444 18.1932 37.6444L18.6403 37.0592C18.9257 36.6772 19.3335 36.1077 19.8731 35.4076L20.7688 34.2459L21.8435 32.9006C22.2283 32.4161 22.6501 31.9299 23.0993 31.412L23.7859 30.6148L24.4489 29.8984L24.3061 30.13C22.7088 32.7451 21.3932 35.4793 21.3932 35.4793C21.3932 35.4793 23.13 32.9713 25.1012 30.6626C26.1226 29.4436 27.2004 28.2826 28.0006 27.4663C28.0169 30.6208 29.0029 33.6886 30.833 36.2792C30.5822 35.9835 30.3374 35.6959 30.1289 35.402C29.8272 34.9436 29.5132 34.5234 29.2545 34.0983C28.9958 33.6732 28.802 33.2732 28.5817 32.8821C28.3614 32.4911 28.2484 32.127 28.0997 31.8005C28.0246 31.6328 27.9563 31.4776 27.894 31.3303C27.8317 31.1831 27.7929 31.0364 27.7472 30.9043C27.6603 30.6395 27.5847 30.4133 27.521 30.2302C27.3928 29.8597 27.3269 29.6634 27.3269 29.6634C27.3269 29.6634 27.3611 29.8651 27.3901 30.2569C27.4228 30.4498 27.4416 30.6991 27.4741 30.9731C27.4978 31.1134 27.5238 31.2668 27.5483 31.4114C27.5728 31.5561 27.6047 31.7445 27.6714 31.9181C27.7595 32.2729 27.8513 32.6767 27.9664 33.1081C28.0814 33.5395 28.2827 33.9563 28.4671 34.4661C28.6515 34.9759 28.9298 35.4338 29.1875 35.9627C29.322 36.2313 29.4766 36.49 29.65 36.7366C29.8162 37.0015 29.9915 37.2649 30.166 37.5509C30.3405 37.837 30.5757 38.0677 30.7683 38.3507C30.976 38.6247 31.1983 38.8881 31.4342 39.1397C31.933 39.675 32.4659 40.1796 33.0299 40.6504C34.2546 41.6773 35.6235 42.532 37.0968 43.1899L38.2799 43.6704L38.3207 43.6635L38.1106 43.663C36.2636 43.6737 34.4195 43.5611 32.5914 43.3263C31.7163 43.231 30.8845 43.0337 30.0571 42.9168C29.2297 42.8 28.4661 42.5641 27.7166 42.4115C26.9672 42.2589 26.2475 42.0065 25.5942 41.788L24.6057 41.464L24.1132 41.3129L23.6677 41.1359C23.0833 40.9102 22.5336 40.6967 22.0338 40.4748L21.3106 40.1464L20.6652 39.8363C19.8009 39.4264 18.9637 38.9659 18.1581 38.4574C18.1581 38.4574 18.3344 38.644 18.7114 38.9679C19.2441 39.4315 19.8024 39.8667 20.3842 40.2717L20.9824 40.6889L21.6569 41.1157C22.1201 41.425 22.6529 41.7045 23.2106 42.0204L23.6423 42.2538L24.1005 42.4783L25.0569 42.9431L25.3853 43.0904C22.27 42.0873 19.3257 40.6528 16.6435 38.8312V38.8312Z" fill="white"/>
<path d="M22.3273 39.1762C22.9683 39.4328 23.728 39.7009 24.5497 39.9766C25.3713 40.2522 26.2345 40.5524 27.1144 40.8137C27.9943 41.075 28.8696 41.3641 29.7013 41.5885C30.5329 41.8128 31.3139 42.0412 31.99 42.2018C32.6661 42.3623 33.2212 42.5253 33.6194 42.6157L34.2403 42.781L33.597 42.7592C33.1866 42.7341 32.6001 42.6891 31.898 42.5961C31.196 42.5031 30.3928 42.3641 29.53 42.2036C28.6672 42.0431 27.7623 41.7725 26.8643 41.5143C25.9662 41.2561 25.1047 40.9106 24.2901 40.5661C23.4754 40.2216 22.7697 39.8587 22.1372 39.542C21.5046 39.2253 21.0271 38.9139 20.6785 38.7024L20.1504 38.341L20.7522 38.5592C21.1259 38.7259 21.6726 38.9489 22.3273 39.1762Z" fill="white"/>
<path d="M63.399 36.6839C64.2106 36.321 65.1312 35.8855 66.1556 35.4009C67.1799 34.9163 68.2383 34.4395 69.3036 33.9209C70.3689 33.4023 71.4696 32.9274 72.4516 32.4409C73.4336 31.9545 74.3988 31.534 75.1961 31.142C75.9934 30.7499 76.6785 30.44 77.1509 30.2248L77.8974 29.8909L77.2238 30.3522C76.8049 30.635 76.1633 31.0368 75.4074 31.5075C74.6514 31.9782 73.7321 32.4765 72.7597 33.02C71.7874 33.5634 70.707 34.0755 69.6333 34.6C68.5597 35.1245 67.4622 35.5629 66.4244 35.9957C65.3866 36.4284 64.4064 36.7883 63.5634 37.0754C62.7203 37.3624 62.0022 37.5878 61.505 37.7396L60.7128 37.9685L61.4495 37.6047C61.9219 37.3894 62.6146 37.0692 63.399 36.6839Z" fill="white"/>
<path d="M72.6975 31.3848L70.8461 32.3611L68.689 33.4073L66.4884 34.3616L64.5385 35.1427L63.1324 35.6334L62.5913 35.8017L63.0731 35.5037L64.3477 34.7602L66.1991 33.7839L68.3562 32.7377L70.5568 31.7834L72.5067 31.0023L73.9076 30.508L74.4486 30.3397L73.9722 30.6413L72.6975 31.3848Z" fill="white"/>
<path d="M29.7672 40.7928L28.3561 40.4546L26.7753 39.9694L25.2319 39.3741L23.9259 38.7747L23.0263 38.2868L22.6928 38.0818L23.0827 38.151L24.0829 38.3784L25.4742 38.765L27.0436 39.2657L28.5833 39.839L29.9098 40.3944L30.8293 40.8338L31.1779 41.0183L30.7827 40.9725L29.7672 40.7928Z" fill="white"/>
</svg>
