<svg width="52" height="52" viewBox="0 0 52 52" fill="none" xmlns="http://www.w3.org/2000/svg">
<path d="M26.5258 0.826111C12.4853 0.826111 1.05176 12.3 1.05176 26.39C1.05176 40.4799 12.4853 51.9539 26.5258 51.9539C40.5662 51.9539 51.9998 40.4799 51.9998 26.39C52.0455 12.3 40.6119 0.826111 26.5258 0.826111ZM50.8564 28.3635C50.582 31.7598 49.5759 34.9266 48.1124 37.6344C46.6946 40.3423 44.7738 42.637 42.8072 44.427C40.7949 46.2169 38.6911 47.502 36.6788 48.374C34.7122 49.246 32.8828 49.7509 31.3736 50.0262C29.8644 50.3016 28.6296 50.3475 27.8063 50.3934C26.9831 50.3934 26.5258 50.3934 26.5258 50.3934C26.5258 50.3934 26.9831 50.3475 27.8063 50.3475C28.6296 50.2557 29.8186 50.1639 31.3279 49.7968C32.8371 49.4755 34.6208 48.8788 36.4959 47.9609C38.4167 47.043 40.429 45.7121 42.3499 43.9221C44.225 42.1322 46.0086 39.8833 47.3349 37.2214C48.6612 34.5594 49.5301 31.4844 49.8045 28.2717C50.0332 25.0131 49.6216 21.6627 48.4783 18.4959C47.655 16.1553 46.3745 13.9523 44.8652 11.9788C45.3226 13.5392 45.8257 15.6963 46.0086 18.1747C45.9629 18.1288 45.9171 18.0829 45.8714 18.037C45.597 17.8075 45.2768 17.7157 45.0939 17.7157C45.0024 17.7157 44.911 17.7616 44.8652 17.7616C44.8195 17.7616 44.7738 17.8075 44.7738 17.8075C44.7738 17.8075 44.8195 17.8075 44.8652 17.8075C44.911 17.8075 45.0024 17.8534 45.0482 17.8993C45.1854 17.9911 45.3683 18.1288 45.5513 18.3582C45.6885 18.5877 45.8257 18.909 45.8714 19.2303C45.8714 19.2762 45.8714 19.3221 45.8714 19.368V19.5056C45.8714 19.5974 45.8714 19.6892 45.8714 19.7351C45.8714 19.9187 45.8257 20.0564 45.7799 20.24C45.7342 20.3777 45.6427 20.5153 45.5513 20.6071C45.4598 20.6989 45.4141 20.7448 45.2311 20.7907C45.1854 20.7907 45.0024 20.7907 44.911 20.7448C44.7738 20.6989 44.6823 20.6071 44.5451 20.5153C44.3164 20.3318 44.1792 20.1023 44.0878 19.9646C43.9963 19.8269 43.9506 19.6892 43.9506 19.6892C43.9506 19.6892 43.9506 19.7351 43.9506 19.781C43.9506 19.8269 43.9506 19.9187 43.9506 20.0105C43.9506 20.1941 43.9963 20.5153 44.1792 20.7907C44.2707 20.9284 44.4079 21.112 44.5908 21.2497C44.7738 21.3874 45.0024 21.525 45.3226 21.525C45.5513 21.525 45.9171 21.4333 46.1001 21.2497L46.1458 21.2038C46.1001 22.6265 45.9171 24.1411 45.597 25.7015C45.9171 25.7015 46.1458 25.5639 46.3287 25.4262C46.5117 25.2885 46.6489 25.1508 46.7403 25.0131C46.8318 24.8754 46.9233 24.7836 46.969 24.7377C47.0148 24.6918 47.0605 24.6459 47.0605 24.6459C47.0605 24.6459 47.0605 24.7377 47.0605 24.8295C47.0605 24.9672 47.0148 25.1508 46.9233 25.3344C46.8318 25.518 46.6489 25.7474 46.4202 25.931C46.1915 26.1146 45.9171 26.2064 45.597 26.2064C45.2768 26.2064 45.0024 26.1146 44.7738 25.931C44.5451 25.7474 44.4079 25.518 44.3164 25.3344C44.225 25.1508 44.1792 24.9213 44.1792 24.8295C44.1792 24.6918 44.1792 24.6459 44.1792 24.6459C44.1792 24.6459 43.9963 24.7377 43.9506 25.1508C43.9506 25.3803 43.9506 25.6557 44.1792 26.0228C44.3622 26.3441 44.7738 26.7113 45.3683 26.803C45.2768 27.0784 45.2311 27.3538 45.1396 27.6292C44.7738 27.6292 44.4536 27.7669 44.225 28.0422C43.8133 28.5471 43.9048 29.3273 44.4079 29.7404C44.042 30.6583 43.5847 31.6221 43.0816 32.54C43.5389 32.5859 43.9048 32.4482 44.1792 32.3105C44.5451 32.1269 44.7738 31.8975 44.9567 31.7139C45.1396 31.5303 45.2311 31.3926 45.3226 31.3467C45.4141 31.2549 45.4598 31.2549 45.4598 31.2549C45.4598 31.2549 45.4141 31.3467 45.3683 31.5762C45.2768 31.7598 45.1396 32.0351 44.911 32.3105C44.6823 32.5859 44.3622 32.8154 43.9506 32.999C43.7676 33.0907 43.5389 33.1366 43.3103 33.1366C43.0816 33.1366 42.8529 33.1366 42.6243 33.0449C42.3956 32.999 42.1669 32.8613 41.984 32.7695C41.801 32.6318 41.6181 32.4941 41.4809 32.3105C41.2065 31.9434 41.0693 31.5762 41.0236 31.209C40.9778 30.8419 40.9778 30.5665 41.0236 30.3829C41.0693 30.1993 41.0693 30.0616 41.0693 30.0616C41.0693 30.0616 41.0236 30.0616 40.9778 30.1534C40.8864 30.2452 40.7949 30.3829 40.7034 30.7042C40.6577 30.9795 40.5662 31.4385 40.7949 31.9893C40.8864 32.2646 41.0693 32.5859 41.3437 32.8613C41.6181 33.1366 41.984 33.412 42.4871 33.5497C42.3041 33.871 42.0754 34.1922 41.8925 34.5135C41.7553 34.5135 41.6181 34.5135 41.4809 34.5135C40.7034 34.6512 40.2003 35.2937 40.2918 35.9363C40.2918 35.9822 40.3375 36.074 40.3375 36.1199C39.7887 35.9822 39.2857 35.4773 39.1484 34.6971C38.9198 33.3202 37.7307 30.4747 36.6331 29.8781C35.444 29.2355 34.4835 30.796 35.1238 31.3008C36.5873 32.4023 35.8556 34.5135 35.9928 36.3493C36.0385 37.0837 36.4044 37.6803 36.7245 38.2311C35.9928 38.4605 35.5354 39.149 35.6726 39.7915C35.7184 40.1587 35.947 40.4341 36.2672 40.6176C35.8098 40.9848 35.3982 41.3061 34.9409 41.6273C34.9409 41.5814 34.9409 41.5355 34.9409 41.4897C34.8952 40.893 34.7122 40.3882 34.4835 40.021C34.2549 39.6538 33.9805 39.3785 33.7518 39.2408C33.2487 38.8736 32.8828 38.8277 32.6999 38.8277C32.4712 38.8277 32.4255 38.8277 32.4255 38.8277C32.4255 38.8277 32.4712 38.8277 32.5627 38.8736C32.6542 38.9195 32.7914 38.9654 32.9743 39.0572C33.2945 39.2408 33.7975 39.6538 34.1177 40.2505C34.4378 40.8471 34.5293 41.7191 34.2091 42.5453C33.9347 43.3714 33.2487 44.1057 32.4255 44.5188C31.6023 44.9318 30.5961 44.9777 29.8186 44.6565C28.9954 44.3352 28.4009 43.6926 28.1722 43.0501C27.8978 42.4076 27.9435 41.8109 28.035 41.3979C28.0807 41.2143 28.1265 41.0307 28.1722 40.9389C28.2179 40.8471 28.2179 40.8012 28.2179 40.8012C28.2179 40.8012 28.1722 40.8471 28.035 41.0307C27.9435 41.2143 27.7149 41.5355 27.6691 42.1322C27.6234 42.4076 27.6234 42.7747 27.7606 43.2337C27.8521 43.6467 28.1265 44.1057 28.5381 44.5647C28.6296 44.6564 28.721 44.7482 28.8582 44.84C28.3551 45.0236 27.8521 45.1613 27.349 45.299C27.2118 44.9318 27.0289 44.7023 26.8459 44.5188C26.6172 44.2893 26.3886 44.1516 26.2056 44.0598C25.794 43.8762 25.5654 43.8762 25.3824 43.8762C25.2452 43.8762 25.1537 43.9221 25.1537 43.9221C25.1537 43.9221 25.1995 43.9221 25.2452 43.968C25.3367 44.0139 25.4282 44.0598 25.5654 44.1057C25.8398 44.2434 26.1599 44.4729 26.48 44.84C26.6172 45.0236 26.7544 45.2531 26.8459 45.5285C26.9374 45.8038 26.8917 46.1251 26.8002 46.4005C26.5715 46.9971 25.9312 47.3643 25.291 47.502C24.0104 47.7774 22.5926 47.1807 22.0438 46.3546C21.7694 45.9415 21.6779 45.5285 21.7237 45.2072C21.7237 45.0695 21.7694 44.9318 21.8151 44.8859C21.8609 44.7941 21.8609 44.7941 21.8609 44.7941C21.8609 44.7941 21.8151 44.7941 21.6779 44.9318C21.5865 45.0695 21.4035 45.299 21.4035 45.7579C21.4035 45.8497 21.4035 45.9874 21.4493 46.1251C21.1291 46.1251 20.809 46.1251 20.5346 46.1251C20.5803 45.9874 20.5803 45.8038 20.5346 45.6662C20.3974 44.9318 19.5742 44.427 18.7052 44.6106C18.6595 44.6106 18.568 44.6565 18.5223 44.6565C18.5223 44.3352 18.6137 44.0139 18.7967 43.7844C19.6199 42.5911 21.9981 41.7191 22.0895 39.6538C22.1353 38.1393 15.6867 38.6441 15.6867 41.0766C15.7325 43.4632 14.6349 43.2796 13.8116 44.6106C13.6744 44.84 13.5372 45.0236 13.4 45.1613C12.8055 44.9777 12.2567 44.84 11.7993 44.6565C11.8451 44.6106 11.8451 44.5647 11.8908 44.5188C12.0737 44.1975 11.9365 43.7385 11.5249 43.5091C11.159 43.2796 10.656 43.3714 10.473 43.6926C10.4273 43.7844 10.4273 43.8303 10.3816 43.9221C5.76239 39.562 2.88113 33.3661 2.88113 26.4818C2.88113 26.4818 2.88113 26.0228 2.88113 25.1967C2.92687 24.3706 2.9726 23.1314 3.24701 21.6168C3.52141 20.1023 4.02449 18.2665 4.89344 16.2929C5.76239 14.3194 7.04295 12.1623 8.82659 10.1888C10.6102 8.16941 12.8512 6.28769 15.5953 4.86493C18.2936 3.39627 21.4493 2.38656 24.8336 2.11119C28.1722 1.83581 31.7395 2.20298 35.0781 3.44216C38.4167 4.63545 41.5266 6.60896 44.0878 9.17912C46.6031 11.7493 48.6155 14.8702 49.8045 18.2206C50.765 21.4333 51.1308 25.0131 50.8564 28.3635Z" fill="white"/>
<path d="M32.9744 33.0449C32.7458 32.6777 32.4714 32.3565 32.1969 32.127C31.9225 31.8975 31.6024 31.7598 31.328 31.668C31.0536 31.5762 30.8249 31.5303 30.5962 31.4844C30.3676 31.4844 30.2304 31.4844 30.1389 31.4844C30.0474 31.4844 29.956 31.4844 29.956 31.4844C29.956 31.4844 30.0017 31.4844 30.1389 31.5303C30.2304 31.5303 30.4133 31.5762 30.5962 31.6221C30.7792 31.668 31.0079 31.7598 31.2365 31.8975C31.4652 32.0352 31.6939 32.2188 31.9225 32.4482C32.1512 32.6777 32.3342 32.9531 32.4714 33.2744C32.6086 33.5956 32.7 33.9628 32.7 34.33C32.7 34.4218 32.7 34.5136 32.7 34.6053C32.7 34.6971 32.7 34.8348 32.6543 34.9266C32.6086 35.1102 32.5628 35.2938 32.5171 35.4774C32.3799 35.8445 32.1512 36.1658 31.8768 36.4412C31.6024 36.7165 31.2823 36.946 30.9164 37.0837C30.5505 37.2214 30.1846 37.2673 29.773 37.2673C29.4072 37.2673 29.0413 37.1755 28.7211 37.0378C28.401 36.9001 28.1266 36.7165 27.8979 36.4871C27.6692 36.2576 27.4863 36.0281 27.3491 35.7986C27.2119 35.5691 27.1204 35.3397 27.0747 35.1561C27.029 34.9725 26.9832 34.8348 26.9832 34.6971C26.9832 34.6053 26.9375 34.5136 26.9375 34.5136C26.9375 34.5136 26.9375 34.5594 26.9375 34.6971C26.9375 34.7889 26.9375 34.9725 26.9375 35.1561C26.9832 35.3397 26.9832 35.615 27.1204 35.8904C27.2119 36.1658 27.3491 36.4412 27.5778 36.7624C28.0351 37.3591 28.7669 37.8639 29.773 37.9557C30.2304 38.0016 30.7334 37.9557 31.1908 37.7721C31.6481 37.5886 32.1055 37.3132 32.4714 36.9919C32.8372 36.6247 33.1116 36.1658 33.2488 35.7068C33.3403 35.4774 33.386 35.2479 33.4318 34.9725C33.4318 34.8348 33.4318 34.743 33.4318 34.6512C33.4318 34.5135 33.4318 34.4218 33.4318 34.2841C33.3403 33.8251 33.1574 33.4121 32.9744 33.0449Z" fill="white"/>
<path d="M19.4828 31.5303C19.3914 30.8419 18.9797 30.3371 18.5681 30.0158C18.3395 29.8781 18.1565 29.7863 17.9736 29.6945C17.7906 29.6486 17.6077 29.6027 17.4705 29.6027C17.3333 29.6027 17.1961 29.6027 17.1504 29.6027C17.0589 29.6027 17.0589 29.6027 17.0589 29.6027C17.0589 29.6027 17.1046 29.6027 17.1504 29.6486C17.2418 29.6486 17.3333 29.6945 17.4248 29.7404C17.6534 29.8322 17.9736 30.0158 18.248 30.3371C18.3852 30.4747 18.5224 30.6583 18.6139 30.8878C18.7053 31.1173 18.7511 31.3468 18.7511 31.5762C18.7511 31.6221 18.7511 31.7139 18.7511 31.7598C18.7511 31.8057 18.7511 31.8975 18.7511 31.9893C18.7511 32.0811 18.7053 32.2188 18.6596 32.3106C18.5681 32.54 18.4309 32.7695 18.2937 32.9072C18.1108 33.0908 17.9279 33.2285 17.6992 33.3203C17.4705 33.4121 17.2418 33.458 16.9674 33.458C16.7388 33.458 16.5101 33.4121 16.2814 33.3203C16.0527 33.2285 15.8698 33.1367 15.7326 32.999C15.5954 32.8613 15.4582 32.7236 15.3667 32.5859C15.2753 32.4483 15.1838 32.3106 15.1381 32.1729C15.0923 32.0352 15.0466 31.9434 15.0466 31.8975C15.0466 31.8057 15.0009 31.8057 15.0009 31.8057C15.0009 31.8057 15.0009 31.8516 15.0009 31.8975C15.0009 31.9893 15.0009 32.0811 15.0009 32.2188C15.0009 32.3565 15.0466 32.54 15.0923 32.7236C15.1381 32.9072 15.2753 33.1367 15.4125 33.3203C15.5497 33.5039 15.7783 33.7333 16.007 33.871C16.2814 34.0087 16.5558 34.1464 16.9217 34.1923C17.2418 34.2382 17.6077 34.1923 17.9279 34.1005C18.248 34.0087 18.5681 33.7792 18.8425 33.5039C19.1169 33.2285 19.2999 32.9072 19.3914 32.5859C19.4371 32.4024 19.4828 32.2188 19.4828 32.0352C19.4828 31.9434 19.4828 31.8975 19.4828 31.8057C19.5286 31.668 19.4828 31.6221 19.4828 31.5303Z" fill="white"/>
<path d="M22.6385 25.9311C22.8671 25.977 23.1415 25.977 23.3702 25.8852C23.5989 25.7934 23.8733 25.6557 24.0562 25.4721C24.2392 25.2885 24.3764 25.0591 24.4678 24.7837C24.5136 24.646 24.5136 24.5542 24.5136 24.3706C24.5136 24.2788 24.5136 24.2788 24.5136 24.2329C24.5136 24.1412 24.5136 24.0953 24.5136 24.0494C24.4221 23.5445 24.1477 23.1773 23.8276 22.9938C23.5074 22.8102 23.233 22.7643 23.0501 22.7643C22.8671 22.7643 22.7757 22.8102 22.7757 22.8102C22.7757 22.8102 22.8214 22.8102 22.8671 22.8561C22.9129 22.8561 23.0043 22.902 23.0501 22.9479C23.1873 23.0397 23.416 23.1773 23.5532 23.3609C23.7361 23.5904 23.8276 23.8658 23.8276 24.1412C23.8276 24.187 23.8276 24.2329 23.8276 24.2329C23.8276 24.2788 23.8276 24.3247 23.8276 24.3706C23.8276 24.4165 23.7818 24.5083 23.7818 24.5542C23.7361 24.6919 23.6446 24.8296 23.5532 24.9214C23.4617 25.0132 23.3245 25.105 23.1873 25.1509C23.0501 25.1968 22.9129 25.2426 22.7757 25.2426C22.6385 25.2426 22.5013 25.2426 22.3641 25.1968C22.2269 25.1509 22.0897 25.105 21.9982 25.0132C21.7695 24.8755 21.6323 24.646 21.5408 24.5083C21.4951 24.4165 21.4494 24.3706 21.4494 24.3247C21.4494 24.2788 21.4036 24.2329 21.4036 24.2329C21.4036 24.2329 21.4036 24.2788 21.4036 24.3247C21.4036 24.3706 21.3579 24.4624 21.3579 24.5542C21.3579 24.7378 21.4036 25.0591 21.6323 25.3344C21.7238 25.4721 21.861 25.6098 22.0439 25.7475C22.1354 25.8393 22.3641 25.9311 22.6385 25.9311Z" fill="white"/>
<path d="M9.83294 17.7157C10.0616 17.8075 10.3818 17.8075 10.6562 17.7616C11.205 17.624 11.708 17.3027 12.0739 16.8437C12.2569 16.6143 12.4398 16.3848 12.5313 16.1094C12.6685 15.8799 12.7599 15.5587 12.7599 15.3292C12.8514 14.7784 12.7142 14.2277 12.4398 13.9064C12.3026 13.7228 12.1197 13.631 11.9367 13.5851C11.7538 13.5392 11.6166 13.5392 11.4794 13.5392C11.2507 13.5392 11.1135 13.631 11.1135 13.631C11.1135 13.631 11.1592 13.631 11.205 13.631C11.2507 13.631 11.3422 13.631 11.4794 13.631C11.5708 13.631 11.7538 13.6769 11.8453 13.7687C11.9825 13.8605 12.1197 13.9523 12.2111 14.09C12.4398 14.4113 12.4855 14.8702 12.3941 15.3292C12.3483 15.5587 12.2569 15.7881 12.1654 16.0176C12.0739 16.2471 11.891 16.4766 11.7538 16.6601C11.3879 16.9814 10.9763 17.3027 10.519 17.3945C10.2903 17.4404 10.0616 17.4863 9.87868 17.4404C9.69574 17.3945 9.5128 17.3027 9.3756 17.165C9.10119 16.8896 9.05546 16.5684 9.00972 16.3389C9.00972 16.2012 9.00972 16.1094 9.00972 16.0635C9.00972 16.0176 9.00972 15.9717 9.00972 15.9717C9.00972 15.9717 9.00972 16.0176 9.00972 16.0635C9.00972 16.1094 8.96399 16.2012 8.96399 16.3389C8.96399 16.5684 8.96399 16.9814 9.2384 17.3486C9.3756 17.4863 9.55854 17.6699 9.83294 17.7157Z" fill="white"/>
<path d="M9.83284 10.2806C9.83284 10.1888 9.87858 10.1888 9.87858 10.1888C9.87858 10.1888 9.83284 10.2347 9.83284 10.2806C9.74138 10.3265 9.69564 10.4183 9.64991 10.556C9.60417 10.6937 9.5127 10.8773 9.5127 11.0608C9.46697 11.2903 9.46697 11.5198 9.60417 11.7952C9.69564 12.0706 9.92431 12.3 10.2445 12.4836C10.3817 12.5754 10.5646 12.6213 10.7475 12.6672C10.839 12.7131 10.8847 12.7131 10.9762 12.7131H11.0219C11.0677 12.7131 11.0677 12.7131 11.1134 12.7131H11.2506C11.9366 12.7131 12.6226 12.4377 13.1714 12.0247C13.4459 11.8411 13.7203 11.6116 13.9489 11.3362C14.0404 11.1985 14.1776 11.0608 14.2691 10.9232C14.3605 10.7855 14.452 10.6019 14.4977 10.4642C14.6349 10.1888 14.7264 9.86756 14.7721 9.54629C14.8179 9.22502 14.7264 8.90375 14.5892 8.67427C14.452 8.3989 14.2691 8.26121 14.0861 8.12353C13.9032 8.03174 13.7203 7.98584 13.5831 7.98584C13.2629 7.98584 13.1257 8.03174 13.1257 8.03174C13.1257 8.03174 13.1714 8.03174 13.2172 8.07763C13.3087 8.07763 13.4001 8.12353 13.5373 8.16942C13.6745 8.21532 13.8117 8.30711 13.9032 8.3989C14.0404 8.53659 14.1319 8.67427 14.1776 8.85786C14.2233 9.04144 14.2233 9.27092 14.1776 9.5004C14.1319 9.72987 14.0404 9.95935 13.9032 10.1888C13.8117 10.3265 13.766 10.4183 13.6745 10.5101C13.5831 10.6019 13.4916 10.7396 13.4001 10.8314C13.2172 11.015 12.9885 11.2444 12.7598 11.3821C12.3025 11.7034 11.7537 11.9329 11.2506 12.0247H11.1591H11.1134H11.0677C10.9762 12.0247 10.9305 12.0247 10.8847 12.0247C10.7933 12.0247 10.6561 12.0247 10.5646 11.9788C10.3817 11.9329 10.1987 11.7952 10.1073 11.6575C9.87858 11.3362 9.87858 10.9232 9.92431 10.6937C9.78711 10.4642 9.83284 10.3724 9.83284 10.2806Z" fill="white"/>
<path d="M6.90583 27.8127C7.08877 27.4915 7.18024 27.1243 7.27171 26.7112C7.31744 26.3441 7.31744 25.931 7.27171 25.5638C7.22597 25.3803 7.18024 25.1967 7.1345 25.0131C7.08877 24.9213 7.04303 24.8295 7.04303 24.7377C6.9973 24.6459 6.95157 24.6 6.90583 24.5082C6.72289 24.1411 6.44849 23.9116 6.12835 23.728C5.80821 23.5444 5.48807 23.4526 5.21366 23.4526C4.89352 23.4526 4.66485 23.5444 4.43618 23.6362C4.20751 23.728 4.0703 23.8657 3.97883 23.9575C3.75016 24.2329 3.65869 24.3706 3.65869 24.3706C3.65869 24.3706 3.70443 24.3247 3.75016 24.3247C3.7959 24.2788 3.9331 24.2329 4.0703 24.1411C4.20751 24.0952 4.34471 24.0034 4.57338 23.9575C4.75632 23.9116 4.98499 23.9116 5.21366 23.9575C5.44233 24.0034 5.62527 24.0952 5.85394 24.2329C6.03688 24.3706 6.21982 24.6 6.31129 24.8295C6.35702 24.9213 6.40275 24.9672 6.40275 25.059C6.40275 25.1049 6.44849 25.1967 6.44849 25.2426C6.49422 25.3803 6.49422 25.5179 6.53996 25.6556C6.58569 25.931 6.58569 26.2523 6.49422 26.5735C6.44849 26.8948 6.35702 27.1702 6.21982 27.4456C6.08261 27.7209 5.94541 27.9963 5.76247 28.1799C5.5338 28.4094 5.3966 28.5471 5.16793 28.6847C4.93926 28.8224 4.71058 28.8683 4.48191 28.8683C4.25324 28.8683 4.0703 28.8224 3.88737 28.7765C3.70443 28.6847 3.56723 28.593 3.43002 28.5012C3.29282 28.4094 3.20135 28.3635 3.15562 28.2717C3.10988 28.2258 3.06415 28.1799 3.06415 28.1799C3.06415 28.1799 3.06415 28.2258 3.10988 28.3176C3.15562 28.4094 3.20135 28.5012 3.29282 28.6388C3.38429 28.7765 3.52149 28.9142 3.70443 29.0519C3.88737 29.1896 4.11604 29.3273 4.43618 29.3732C4.71058 29.4191 5.07646 29.4191 5.3966 29.2814C5.71674 29.1896 6.03688 28.9601 6.26555 28.7306C6.53996 28.4553 6.76863 28.134 6.90583 27.8127Z" fill="white"/>
<path d="M30.4591 8.2612C30.9164 8.2612 31.4195 8.2612 31.8768 8.16941C32.3342 8.07762 32.7915 7.93993 33.2489 7.71045C33.6147 7.52687 34.0264 7.15971 34.255 6.74665C34.3465 6.51717 34.438 6.28769 34.438 6.05821C34.438 5.82873 34.3922 5.64515 34.3008 5.46157C34.1636 5.0944 33.9349 4.81903 33.7062 4.63544C33.4775 4.45186 33.2946 4.31418 33.1117 4.22238C32.9287 4.13059 32.7915 4.0847 32.7001 4.0388C32.6086 3.99291 32.5629 3.99291 32.5629 3.99291C32.5629 3.99291 32.6086 4.0388 32.7001 4.0847C32.7915 4.13059 32.9287 4.26828 33.0659 4.36007C33.2031 4.49776 33.3861 4.68134 33.5233 4.86492C33.6605 5.0944 33.8434 5.32388 33.8892 5.59925C33.9349 5.87463 33.9349 6.1959 33.752 6.42538C33.569 6.70075 33.2946 6.88433 32.9287 7.06791C32.6086 7.2056 32.197 7.29739 31.7854 7.38918C31.3738 7.43508 30.9622 7.48098 30.5048 7.43508C30.0932 7.43508 29.6359 7.34329 29.2243 7.2515C28.8126 7.15971 28.401 7.02202 28.0352 6.88433C27.9437 6.83844 27.8522 6.79254 27.7608 6.74665C27.6693 6.70075 27.5778 6.65485 27.4863 6.60896C27.3034 6.51717 27.1662 6.42538 27.029 6.33358C26.7546 6.10411 26.5259 5.87463 26.343 5.59925C26.2058 5.32388 26.1143 5.04851 26.1601 4.81903C26.2058 4.58955 26.2973 4.36007 26.3887 4.22238C26.4802 4.0847 26.6174 3.94701 26.6631 3.85522C26.7546 3.76343 26.8003 3.76343 26.8003 3.76343C26.8003 3.76343 26.7546 3.80932 26.6631 3.85522C26.5717 3.90111 26.4345 3.99291 26.2973 4.13059C26.16 4.26828 25.9771 4.49776 25.8856 4.77313C25.7942 5.04851 25.7942 5.46157 25.9771 5.82873C26.1143 6.1959 26.3887 6.51717 26.6631 6.79254C26.8003 6.93023 26.9833 7.06791 27.1662 7.2056C27.2577 7.2515 27.3491 7.29739 27.4406 7.38918C27.5321 7.43508 27.6235 7.48098 27.7608 7.57277C28.1724 7.75635 28.584 7.93993 29.0413 8.07762C29.5444 8.16941 30.0017 8.2612 30.4591 8.2612Z" fill="white"/>
<path d="M38.1424 20.2399C38.1424 20.1022 38.1882 19.9646 38.1882 19.8269C38.1882 19.6892 38.1882 19.5974 38.1882 19.4597C38.1882 19.322 38.1424 19.2302 38.1424 19.0925C37.9595 18.1287 37.4107 17.3944 36.8161 16.9813C36.5417 16.7519 36.2216 16.6142 35.9472 16.5224C35.6728 16.4306 35.4441 16.3847 35.2154 16.3388C34.9868 16.3388 34.8496 16.3388 34.7581 16.3388C34.6666 16.3388 34.5752 16.3388 34.5752 16.3388C34.5752 16.3388 34.6209 16.3388 34.7581 16.3847C34.8496 16.3847 35.0325 16.4765 35.2154 16.5224C35.3984 16.6142 35.627 16.706 35.8557 16.8437C36.0844 16.9813 36.3131 17.1649 36.5417 17.3944C36.9991 17.8534 37.3649 18.4959 37.4564 19.2761C37.4564 19.3679 37.4564 19.4597 37.4564 19.5515C37.4564 19.6433 37.4564 19.7351 37.4564 19.8728C37.4107 20.0564 37.4107 20.2399 37.3649 20.4235C37.2735 20.7907 37.0448 21.112 36.7704 21.3873C36.496 21.6627 36.1759 21.8463 35.81 21.984C35.627 22.0299 35.4441 22.0758 35.2612 22.0758H34.9868C34.8953 22.0758 34.7581 22.0758 34.6666 22.0758C34.3007 22.0299 33.9349 21.9381 33.6147 21.7545C33.2946 21.6168 33.0202 21.3873 32.7915 21.1578C32.5628 20.9284 32.3799 20.6989 32.2427 20.4694C32.1055 20.2399 32.014 20.0105 31.9226 19.8728C31.8768 19.6892 31.7854 19.5515 31.7854 19.4138C31.7396 19.322 31.7396 19.2761 31.7396 19.2761C31.7396 19.2761 31.7396 19.322 31.7396 19.4597C31.7396 19.5515 31.7396 19.7351 31.7396 19.9187C31.7854 20.1022 31.8311 20.3776 31.9226 20.653C32.014 20.9284 32.197 21.2037 32.4256 21.4791C32.6543 21.7545 32.9287 22.0299 33.2946 22.2593C33.6605 22.4888 34.0721 22.6724 34.5752 22.7642C34.6666 22.7642 34.8038 22.8101 34.8953 22.8101C35.0325 22.8101 35.124 22.8101 35.2612 22.8101C35.3984 22.8101 35.4898 22.8101 35.627 22.7642C35.7642 22.7183 35.8557 22.7183 35.9929 22.6724C36.496 22.5347 36.9533 22.2593 37.3192 21.8922C37.6851 21.525 37.9595 21.0661 38.0967 20.5612C38.0967 20.5153 38.0967 20.3776 38.1424 20.2399Z" fill="white"/>
<path d="M12.6683 24.6919C12.9427 24.646 13.2628 24.6001 13.4915 24.4165C13.7659 24.2788 13.9946 24.0953 14.1775 23.8658C14.3605 23.6363 14.5434 23.3609 14.6349 23.0855C14.7263 22.8102 14.7721 22.4889 14.7263 22.2135C14.6806 21.9382 14.5891 21.6628 14.4519 21.4333C14.3147 21.2038 14.1318 21.0661 13.9031 20.9285C13.4915 20.699 13.1256 20.699 12.897 20.699C12.7598 20.699 12.6683 20.7449 12.6226 20.7449C12.5768 20.7449 12.5311 20.7908 12.5311 20.7908C12.5311 20.7908 12.5768 20.7908 12.6226 20.7908C12.6683 20.7908 12.7598 20.7908 12.897 20.8367C13.1256 20.8826 13.4458 20.9743 13.7202 21.2038C13.9946 21.4333 14.2233 21.8005 14.2233 22.2594C14.2233 22.4889 14.1775 22.7184 14.1318 22.902C14.0403 23.1314 13.9489 23.315 13.7659 23.4986C13.4458 23.8658 13.0342 24.0953 12.5768 24.187C12.4396 24.2329 12.3482 24.2329 12.2567 24.2329C12.1652 24.2329 12.028 24.2329 11.9365 24.187C11.7536 24.1411 11.5707 24.0494 11.3877 23.9576C11.0676 23.774 10.8847 23.4527 10.7932 23.2691C10.7017 23.0397 10.7017 22.902 10.7017 22.902C10.7017 22.902 10.7017 22.9479 10.7017 22.9938C10.7017 23.0397 10.7017 23.1773 10.7017 23.2691C10.7475 23.4986 10.8389 23.8658 11.2048 24.187C11.3877 24.3247 11.5707 24.4624 11.8451 24.5542C11.9823 24.6001 12.1195 24.646 12.2567 24.646C12.3939 24.6919 12.5768 24.6919 12.6683 24.6919Z" fill="white"/>
<path d="M35.0782 7.71051C35.1239 7.66461 35.1239 7.66461 35.1239 7.66461C35.1239 7.66461 35.1239 7.66461 35.0782 7.71051C34.9867 7.71051 34.8953 7.71051 34.8038 7.8023C34.7123 7.89409 34.6209 7.98588 34.5294 8.16946C34.4837 8.35305 34.4379 8.53663 34.4837 8.76611C34.5294 8.99559 34.6209 9.17917 34.7581 9.40865C34.8038 9.50044 34.8953 9.59223 34.9867 9.68402C35.0782 9.77581 35.1239 9.82171 35.2611 9.95939C35.627 10.2807 36.0844 10.556 36.6332 10.6937C36.9076 10.7396 37.182 10.7855 37.4564 10.7855C37.5936 10.7855 37.7308 10.7855 37.868 10.7396C37.9595 10.7396 38.0052 10.6937 38.0967 10.6937C38.1881 10.6478 38.2339 10.6478 38.2796 10.6019C38.554 10.4642 38.7827 10.2348 38.8742 9.95939C38.9656 9.68402 38.9199 9.40865 38.8284 9.22506C38.6455 8.812 38.4168 8.62842 38.2339 8.49073C38.1424 8.44484 38.0509 8.39894 38.0052 8.35305C37.9595 8.30715 37.9137 8.30715 37.9137 8.30715C37.9137 8.30715 37.9137 8.35305 37.9595 8.39894C38.0052 8.44484 38.0509 8.53663 38.0967 8.62842C38.1881 8.812 38.3253 9.08738 38.3711 9.36275C38.3711 9.50044 38.3711 9.63812 38.2796 9.77581C38.2339 9.8676 38.0967 9.95939 37.9595 10.0053C37.9137 10.0512 37.868 10.0512 37.8223 10.0512C37.7765 10.0512 37.7308 10.0512 37.6851 10.0512C37.5936 10.0512 37.5021 10.0512 37.4107 10.0512C37.2277 10.0512 36.9991 10.0053 36.8161 9.95939C36.6332 9.9135 36.4045 9.82171 36.2216 9.72992C36.0386 9.63812 35.8557 9.54633 35.6728 9.40865C35.627 9.36275 35.4898 9.27096 35.4441 9.22506C35.3984 9.17917 35.3069 9.08738 35.2611 9.04148C35.1239 8.90379 35.0325 8.76611 34.9867 8.62842C34.8495 8.35305 34.8495 8.12357 34.941 7.93999C34.9867 7.84819 35.0782 7.7564 35.0782 7.71051Z" fill="white"/>
<path d="M13.4458 38.3229C13.2171 38.0016 12.9427 37.818 12.7598 37.6803C12.6683 37.6345 12.5768 37.5886 12.5311 37.5886C12.4854 37.5886 12.4396 37.5427 12.4396 37.5427C12.4396 37.5427 12.5311 37.6345 12.6683 37.7721C12.8055 37.9098 12.9884 38.1852 13.1256 38.4606C13.2628 38.7818 13.4 39.149 13.4 39.5621C13.4 39.6539 13.4 39.7916 13.3543 39.8374C13.3543 39.8833 13.3086 39.9751 13.3086 40.021C13.3086 40.0669 13.3086 40.1128 13.2628 40.1128C13.1714 40.2964 13.0799 40.3882 12.9427 40.4341C12.8055 40.48 12.6226 40.48 12.4396 40.4341C12.3482 40.3882 12.2567 40.3423 12.1652 40.3423L12.028 40.2505L11.8908 40.1587C11.5707 39.9292 11.2963 39.608 11.1591 39.2867C10.9761 39.0113 10.8847 38.6901 10.8389 38.5065C10.7932 38.3229 10.7932 38.1852 10.7932 38.1852C10.7932 38.1852 10.7932 38.2311 10.7475 38.277C10.7475 38.3229 10.7017 38.4147 10.7017 38.5065C10.7017 38.736 10.7017 39.0572 10.8389 39.4244C10.9761 39.7916 11.2048 40.2046 11.5707 40.5259L11.7079 40.6636L11.8451 40.7554C11.9365 40.8472 12.0738 40.8931 12.211 40.9389C12.4854 41.0307 12.8055 41.0766 13.1256 40.9389C13.4458 40.8472 13.6745 40.5718 13.8117 40.2964C13.8574 40.2505 13.8574 40.1587 13.9031 40.0669C13.9031 39.9751 13.9031 39.9292 13.9489 39.8833C13.9489 39.6998 13.9489 39.608 13.9489 39.4703C13.9031 39.0572 13.6745 38.6442 13.4458 38.3229Z" fill="white"/>
<path d="M10.8847 36.7624C10.9305 36.5329 10.8847 36.3494 10.8847 36.1658C10.839 35.4314 10.5189 34.7889 10.1987 34.3299C10.0158 34.1005 9.87859 33.9169 9.69566 33.7333C9.51272 33.5956 9.37552 33.4579 9.23831 33.3661C9.10111 33.2743 9.00964 33.2284 8.91817 33.1826C8.8267 33.1367 8.78097 33.1367 8.78097 33.1367C8.78097 33.1367 8.8267 33.1826 8.87244 33.2284C8.96391 33.2743 9.00964 33.3661 9.14685 33.4579C9.37552 33.6874 9.64992 34.0546 9.87859 34.5135C10.1073 34.9725 10.3359 35.5691 10.3359 36.2117C10.3359 36.3494 10.3359 36.5329 10.2902 36.6706C10.2902 36.7624 10.2445 36.8542 10.2445 36.9001C10.1987 36.946 10.1987 37.0378 10.153 37.0837C10.0158 37.3591 9.83286 37.5426 9.55845 37.6344C9.28405 37.7262 8.96391 37.7262 8.6895 37.6344C8.5523 37.5885 8.4151 37.5426 8.27789 37.4509L8.04922 37.3132L7.86628 37.1755C7.36321 36.8083 6.99733 36.3035 6.72293 35.8445C6.58572 35.615 6.49425 35.3855 6.44852 35.202C6.40279 35.0184 6.40279 34.8348 6.35705 34.6971C6.35705 34.5594 6.31132 34.4217 6.31132 34.3299C6.31132 34.2382 6.31132 34.1923 6.31132 34.1923C6.31132 34.1923 6.31132 34.2382 6.26558 34.3299C6.26558 34.4217 6.21985 34.5594 6.21985 34.6971C6.21985 34.8807 6.21985 35.0643 6.26558 35.2938C6.31132 35.5232 6.35705 35.7986 6.44852 36.0281C6.63146 36.5788 6.99733 37.1755 7.54614 37.6344L7.77482 37.818L8.00349 37.9557C8.18642 38.0475 8.32363 38.1393 8.5523 38.2311C8.91817 38.3688 9.37552 38.4147 9.83286 38.277C10.2445 38.1393 10.6103 37.7721 10.7475 37.3591C10.7933 37.2673 10.839 37.1755 10.839 37.0378C10.839 36.946 10.8847 36.8542 10.8847 36.7624Z" fill="white"/>
<path d="M25.1539 16.5225C25.5198 15.5128 26.5259 14.962 28.8584 14.6407C31.1908 14.3195 33.7977 15.7881 36.7247 15.2833C39.8804 14.7325 36.2674 13.9064 32.5171 12.759C28.8127 11.6116 28.584 12.8967 25.7027 12.5295C22.8672 12.1624 21.4037 12.8049 20.9921 14.5031C20.8091 15.3292 17.562 14.0441 17.562 15.6045C17.562 16.4307 17.9736 17.3486 20.0317 18.2665C21.9982 19.1844 24.788 17.5322 25.1539 16.5225Z" fill="white"/>
<path d="M10.4732 31.7139C11.0677 31.6221 11.3879 30.796 11.2049 29.8781C11.022 28.9601 10.4275 28.3176 9.83291 28.4553C9.23837 28.5471 8.91823 29.3732 9.10116 30.2911C9.2841 31.209 9.87865 31.8057 10.4732 31.7139Z" fill="white"/>
<path d="M11.7079 33.5497C11.9823 33.5038 12.1653 33.0908 12.0738 32.6318C11.9823 32.1729 11.6622 31.8516 11.3878 31.8975C11.1134 31.9434 10.9304 32.3564 11.0219 32.8154C11.1134 33.2744 11.4335 33.5956 11.7079 33.5497Z" fill="white"/>
<path d="M13.8574 37.2673C13.6287 37.405 13.6744 37.818 13.9031 38.1393C14.1318 38.4606 14.4977 38.5983 14.6806 38.4606C14.9093 38.3229 14.8635 37.9098 14.6349 37.5885C14.4062 37.2673 14.0403 37.1296 13.8574 37.2673Z" fill="white"/>
<path d="M25.4283 37.0378C24.5594 37.1755 23.9191 37.9098 24.0563 38.69C24.1935 39.4243 25.0167 39.9292 25.8856 39.7456C26.7546 39.6079 27.3949 38.8736 27.2577 38.0934C27.1205 37.359 26.2973 36.9001 25.4283 37.0378Z" fill="white"/>
<path d="M22.6843 36.8541C22.227 36.9459 21.9526 37.3131 21.9983 37.6803C22.044 38.0474 22.4556 38.2769 22.913 38.231C23.3703 38.1392 23.6447 37.7721 23.599 37.4049C23.5075 37.0377 23.0959 36.8083 22.6843 36.8541Z" fill="white"/>
<path d="M24.6965 35.6609C24.3306 35.7068 24.102 36.0281 24.1477 36.3493C24.1934 36.6706 24.5593 36.8542 24.8795 36.7624C25.2453 36.7165 25.474 36.3952 25.4283 36.074C25.3825 35.7527 25.0624 35.5691 24.6965 35.6609Z" fill="white"/>
<path d="M29.1327 15.9717C28.2637 15.2832 27.0289 15.3291 26.3886 16.1553C25.7026 16.9814 25.8398 18.2206 26.7088 18.909C27.5777 19.5974 28.8125 19.5515 29.4528 18.7254C30.1388 17.8993 30.0016 16.706 29.1327 15.9717Z" fill="white"/>
<path d="M30.6879 15.9258C30.3677 16.2929 30.4135 16.8896 30.8251 17.2109C31.2367 17.5321 31.8312 17.4862 32.1514 17.1191C32.4715 16.7519 32.4258 16.1553 32.0142 15.834C31.6026 15.5127 31.008 15.5586 30.6879 15.9258Z" fill="white"/>
<path d="M38.1423 26.0228C37.7307 26.39 37.6392 26.9866 37.9136 27.3538C38.2338 27.7209 38.7826 27.7209 39.2399 27.3538C39.6515 26.9866 39.743 26.39 39.4686 26.0228C39.1485 25.6556 38.5539 25.6556 38.1423 26.0228Z" fill="white"/>
<path d="M29.27 27.9046C29.7273 28.0423 30.139 27.8128 30.2762 27.4456C30.3676 27.0784 30.139 26.6654 29.6816 26.5736C29.2243 26.4359 28.8127 26.6654 28.6755 27.0325C28.5383 27.3997 28.8127 27.7669 29.27 27.9046Z" fill="white"/>
<path d="M5.3508 20.9285C5.85387 21.112 6.49415 20.6072 6.72283 19.827C6.99723 19.0467 6.76856 18.2665 6.26548 18.0829C5.7624 17.8993 5.12212 18.4042 4.89345 19.1844C4.61905 19.9646 4.84772 20.7449 5.3508 20.9285Z" fill="white"/>
<path d="M6.95159 15.2833C6.81439 15.6504 6.95159 15.9717 7.18026 16.0635C7.40893 16.1553 7.68334 15.9258 7.82054 15.5586C7.95775 15.1915 7.82054 14.8702 7.59187 14.7784C7.3632 14.6866 7.08879 14.9161 6.95159 15.2833Z" fill="white"/>
<path d="M6.67725 16.706C6.81445 16.247 6.72298 15.7881 6.40284 15.6963C6.12844 15.6045 5.76256 15.8799 5.57962 16.3388C5.44242 16.7978 5.53389 17.2568 5.85403 17.3485C6.17417 17.4403 6.54005 17.165 6.67725 16.706Z" fill="white"/>
<path d="M20.9463 6.79255C22.2269 6.47128 23.0959 5.64516 22.9129 5.00262C22.73 4.36008 21.5866 4.0847 20.3061 4.40597C19.0255 4.72724 18.1565 5.55336 18.3395 6.1959C18.5224 6.83844 19.7115 7.11382 20.9463 6.79255Z" fill="white"/>
<path d="M17.928 7.48101C17.3335 7.75638 17.0133 8.26124 17.1505 8.58251C17.2877 8.90378 17.8823 8.90378 18.4768 8.6284C19.0714 8.35303 19.3915 7.84818 19.2543 7.52691C19.0714 7.20564 18.4768 7.15974 17.928 7.48101Z" fill="white"/>
<path d="M41.5268 13.0803C41.0237 13.5392 41.2981 14.6866 42.2128 15.6504C43.0817 16.6142 44.2251 17.0273 44.7282 16.5683C45.2312 16.1094 44.9568 14.962 44.0422 13.9982C43.1732 13.0344 42.0298 12.6213 41.5268 13.0803Z" fill="white"/>
<path d="M26.1142 11.8411C27.4405 11.7952 28.4924 11.1067 28.4466 10.3265C28.4009 9.54627 27.349 8.94963 26.0227 8.99552C24.6964 9.04142 23.6445 9.72985 23.6903 10.5101C23.736 11.2903 24.7879 11.8869 26.1142 11.8411Z" fill="white"/>
<path d="M22.6386 12.2542C23.1874 12.2542 23.6447 11.9329 23.6447 11.6116C23.6447 11.2903 23.1874 11.015 22.5928 11.0609C22.044 11.0609 21.5867 11.3821 21.5867 11.7034C21.6324 12.0247 22.0897 12.3001 22.6386 12.2542Z" fill="white"/>
<path d="M42.3957 12.1165C42.6244 11.887 42.4415 11.2903 41.9841 10.8314C41.5268 10.3724 40.9322 10.1888 40.7035 10.4642C40.4749 10.6937 40.6578 11.2903 41.1152 11.7493C41.5725 12.2083 42.167 12.3918 42.3957 12.1165Z" fill="white"/>
<path d="M1.55497 17.5321C1.7379 17.0732 1.87511 16.6142 2.10378 16.1553C2.46965 15.1915 2.97273 14.2276 3.52154 13.2638C4.07035 12.3 4.71064 11.3362 5.39665 10.4183C6.08267 9.5004 6.86015 8.58249 7.7291 7.75636C8.55232 6.93024 9.46701 6.15002 10.3817 5.41569C11.2964 4.72725 12.2568 4.08471 13.2172 3.53396C14.1776 2.98322 15.1381 2.52426 16.0985 2.1112C16.5558 1.88172 17.0589 1.74403 17.4705 1.56045C17.9279 1.42277 18.3852 1.23918 18.7968 1.14739C19.6658 0.917913 20.4432 0.688435 21.175 0.550748C21.5409 0.504852 21.861 0.413061 22.1811 0.367165C22.5013 0.321269 22.7757 0.275374 23.0501 0.229478C23.5532 0.137687 24.0105 0.137687 24.2849 0.0917913C24.5593 0.0458957 24.7423 0.0458956 24.7423 0.0458956C24.7423 0.0458956 24.6051 0.0458956 24.2849 0.0458956C24.0105 0.0458956 23.5989 0 23.0501 0C22.7757 0 22.5013 0 22.1811 0C21.861 0.0458956 21.4951 0.0458957 21.1293 0.0917913C20.3975 0.183583 19.5286 0.275374 18.6596 0.458956C18.2023 0.550748 17.7449 0.688435 17.2418 0.780226C16.7845 0.917913 16.2814 1.0556 15.7783 1.23918C14.7722 1.56045 13.766 2.01941 12.7141 2.57016C11.708 3.1209 10.6561 3.71755 9.64994 4.45188C8.68952 5.14031 7.7291 5.96643 6.86015 6.83845C5.9912 7.71047 5.16798 8.67428 4.43623 9.68398C3.70448 10.6937 3.10993 11.7034 2.56112 12.759C2.05804 13.8146 1.6007 14.8243 1.23483 15.834C1.05189 16.3388 0.914687 16.8437 0.777484 17.3027C0.640281 17.8075 0.548812 18.2665 0.457343 18.7254C0.274406 19.6433 0.137203 20.4695 0.0914687 21.2038C0.0457343 21.5251 0.0457343 21.8922 0 22.2135C0 22.5348 0 22.856 0 23.0855C0 23.6363 0.0457343 24.0493 0.0457343 24.3247C0.0457343 24.6001 0.0457343 24.7836 0.0457343 24.7836C0.0457343 24.7836 0.0457343 24.646 0.0914687 24.3706C0.137203 24.0952 0.137203 23.6822 0.228672 23.1314C0.274406 22.856 0.32014 22.5807 0.365875 22.2594C0.411609 21.9381 0.503078 21.6169 0.548812 21.2497C0.686015 20.5154 0.868952 19.7351 1.14336 18.8631C1.28056 18.4042 1.41776 17.9911 1.55497 17.5321Z" fill="white"/>
</svg>
