<svg width="225" height="225" viewBox="0 0 225 225" fill="none" xmlns="http://www.w3.org/2000/svg">
<path d="M102.112 129.81C102.27 129.855 102.435 129.915 102.622 129.96L103.215 130.065C103.635 130.14 104.092 130.238 104.602 130.313L106.26 130.433C106.567 130.451 106.875 130.451 107.182 130.433H108.165C108.507 130.413 108.847 130.376 109.185 130.32L110.257 130.178C110.625 130.118 111.007 130.013 111.36 129.93L111.93 129.795C112.124 129.76 112.315 129.707 112.5 129.638C113.287 129.393 114.059 129.1 114.81 128.76C116.433 128.033 117.947 127.084 119.31 125.94L120.36 125.003C120.712 124.688 121.012 124.313 121.35 123.968C121.515 123.795 121.672 123.615 121.837 123.435C122.002 123.255 122.13 123.053 122.28 122.858C122.565 122.468 122.88 122.108 123.142 121.68L123.892 120.413L124.08 120.09L124.237 119.753L124.567 119.063L124.89 118.38C125.002 118.148 125.055 117.923 125.145 117.698L125.64 116.303C126.164 114.387 126.431 112.409 126.435 110.423C126.435 109.935 126.382 109.448 126.352 108.96C126.352 108.72 126.352 108.48 126.292 108.21C126.232 107.94 126.21 107.73 126.165 107.498C126.075 107.025 126.022 106.545 125.895 106.088C125.767 105.63 125.64 105.18 125.52 104.73C124.985 103.023 124.212 101.4 123.225 99.9077C122.77 99.212 122.269 98.548 121.725 97.9202C121.607 97.7627 121.476 97.6147 121.335 97.4777L120.93 97.0577C120.66 96.7877 120.405 96.5027 120.135 96.2552L119.31 95.5502C119.057 95.3181 118.789 95.1026 118.507 94.9052L117.697 94.3502C117.457 94.1711 117.207 94.0058 116.947 93.8552C116.43 93.5702 115.942 93.3002 115.447 93.0602C114.952 92.8202 114.54 92.6777 114.142 92.5127L113.587 92.2802L113.085 92.1302L112.282 91.8977L111.615 91.7027L112.26 91.9727L113.01 92.2877L113.497 92.4902L114.022 92.7677C114.397 92.9627 114.81 93.1727 115.245 93.4127L116.602 94.3052C116.866 94.4654 117.117 94.646 117.352 94.8452L118.102 95.4377C118.365 95.6455 118.615 95.8684 118.852 96.1052L119.602 96.8552C119.85 97.1102 120.067 97.3952 120.315 97.6727L120.675 98.0927C120.803 98.2316 120.921 98.3795 121.027 98.5352C122.517 100.512 123.635 102.744 124.327 105.12C124.81 106.849 125.063 108.635 125.077 110.43C125.058 112.282 124.793 114.123 124.29 115.905L123.825 117.233C123.756 117.462 123.673 117.688 123.577 117.908L123.292 118.523L123.007 119.138L122.865 119.453L122.692 119.745L121.987 120.93C121.004 122.434 119.826 123.8 118.485 124.995L118.245 125.22L117.99 125.415L117.472 125.813C117.147 126.085 116.803 126.335 116.445 126.563L115.387 127.238C115.035 127.448 114.637 127.62 114.307 127.808C113.607 128.164 112.886 128.477 112.147 128.745C111.975 128.82 111.797 128.88 111.615 128.925L111.082 129.09C110.73 129.188 110.385 129.308 110.04 129.39L109.02 129.585C108.699 129.661 108.373 129.716 108.045 129.75L107.1 129.848C106.792 129.848 106.5 129.93 106.207 129.923H104.58C104.085 129.923 103.62 129.84 103.2 129.803L102.607 129.75C102.427 129.75 102.255 129.69 102.097 129.66L101.28 129.518L100.597 129.39L101.257 129.585L102.112 129.81Z" fill="white"/>
<path d="M125.648 127.642L124.935 128.227L124.313 128.752L123.735 129.142C123.038 129.607 122.648 129.892 122.648 129.892C122.648 129.892 123.068 129.675 123.81 129.262L124.418 128.917L125.093 128.445C125.34 128.28 125.595 128.1 125.843 127.905C125.985 127.813 126.118 127.707 126.24 127.59L126.645 127.237L127.493 126.487L128.318 125.595L128.745 125.122C128.888 124.957 129.008 124.777 129.143 124.605L129.945 123.525C130.457 122.735 130.914 121.911 131.31 121.057C131.721 120.174 132.074 119.264 132.368 118.335C132.621 117.395 132.817 116.441 132.953 115.477C133.074 114.545 133.136 113.605 133.14 112.665C133.14 112.207 133.08 111.765 133.05 111.322C133.05 111.105 133.05 110.887 132.998 110.67C132.945 110.452 132.923 110.25 132.893 110.047C132.818 109.635 132.75 109.23 132.683 108.847C132.615 108.465 132.473 108.097 132.375 107.752C132.323 107.572 132.278 107.4 132.225 107.235C132.185 107.071 132.132 106.91 132.068 106.755L131.708 105.877L131.393 105.127L131.07 104.512C130.673 103.762 130.433 103.35 130.433 103.35C130.433 103.35 130.613 103.8 130.943 104.572C131.025 104.767 131.123 104.977 131.22 105.21L131.468 105.96L131.745 106.837C131.85 107.145 131.895 107.49 131.985 107.835C132.075 108.18 132.143 108.547 132.225 108.922C132.308 109.297 132.323 109.672 132.368 110.1C132.368 110.302 132.42 110.505 132.45 110.715C132.48 110.925 132.45 111.135 132.45 111.345C132.45 111.77 132.465 112.205 132.495 112.65C132.466 113.561 132.386 114.47 132.255 115.372C132.005 117.237 131.472 119.053 130.673 120.757C130.294 121.584 129.871 122.391 129.405 123.172L128.655 124.245C128.535 124.417 128.423 124.597 128.295 124.762L127.898 125.235L127.148 126.15L126.398 126.9C126.135 127.177 125.903 127.44 125.648 127.642Z" fill="white"/>
<path d="M206.302 107.07C205.469 107.077 204.648 107.283 203.91 107.67L196.597 100.35C194.649 86.6152 189.36 73.5684 181.192 62.3551L183.915 57.1051C184.938 57.1778 185.961 56.9492 186.855 56.4473C187.75 55.9455 188.478 55.1924 188.95 54.2813C189.421 53.3701 189.616 52.3408 189.509 51.3205C189.401 50.3001 188.998 49.3335 188.347 48.5401C188.141 48.2852 187.913 48.0492 187.665 47.8351C187.136 47.3874 186.524 47.0488 185.864 46.8388C185.204 46.6288 184.508 46.5515 183.818 46.6115C183.128 46.6715 182.456 46.8674 181.842 47.1881C181.228 47.5088 180.684 47.9479 180.24 48.4801L180.202 48.5401H168.6C156.14 37.5005 140.711 30.365 124.23 28.0201L116.91 20.7076C117.301 19.9706 117.507 19.1495 117.51 18.3151C117.503 17.5249 117.319 16.7464 116.969 16.0376C116.62 15.3288 116.115 14.708 115.492 14.2215C114.87 13.735 114.145 13.3953 113.373 13.2279C112.601 13.0604 111.8 13.0694 111.032 13.2542C110.264 13.439 109.547 13.7949 108.936 14.2953C108.324 14.7957 107.833 15.4277 107.5 16.1442C107.167 16.8607 106.999 17.6432 107.011 18.4333C107.022 19.2235 107.211 20.0009 107.565 20.7076L100.245 28.0201C83.7698 30.3528 68.3432 37.4753 55.8824 48.5026H44.2874C44.0841 48.2478 43.8582 48.0118 43.6124 47.7976C43.0835 47.3487 42.4708 47.0092 41.8099 46.7985C41.1489 46.5878 40.4528 46.5103 39.7617 46.5702C39.0706 46.6302 38.3982 46.8266 37.7834 47.1479C37.1686 47.4693 36.6236 47.9093 36.1799 48.4426C36.1691 48.4636 36.1566 48.4837 36.1424 48.5026C35.4902 49.2954 35.0846 50.262 34.976 51.2829C34.8674 52.3037 35.0605 53.334 35.5314 54.2463C36.0023 55.1585 36.7304 55.9127 37.6254 56.4155C38.5205 56.9183 39.5434 57.1476 40.5674 57.0751L43.2899 62.3251C35.1155 73.5464 29.8229 86.604 27.8774 100.35L20.5649 107.67C19.8582 107.317 19.0808 107.127 18.2907 107.116C17.5006 107.105 16.7181 107.272 16.0016 107.605C15.2851 107.938 14.6531 108.429 14.1527 109.041C13.6523 109.652 13.2964 110.369 13.1116 111.137C12.9267 111.906 12.9177 112.706 13.0852 113.478C13.2527 114.25 13.5923 114.975 14.0788 115.597C14.5653 116.22 15.1861 116.725 15.8949 117.074C16.6037 117.424 17.3822 117.609 18.1724 117.615C19.0068 117.612 19.828 117.406 20.5649 117.015L27.8774 124.335C29.8254 138.07 35.1152 151.117 43.2824 162.33L39.5324 169.53C38.6897 169.647 37.8879 169.966 37.1961 170.461C36.5042 170.956 35.9431 171.612 35.5609 172.372C35.1787 173.132 34.9869 173.974 35.0021 174.824C35.0173 175.675 35.239 176.509 35.648 177.255C36.0571 178.001 36.6413 178.636 37.3503 179.106C38.0594 179.576 38.8721 179.867 39.7184 179.954C40.5648 180.04 41.4194 179.919 42.2088 179.602C42.9982 179.285 43.6987 178.781 44.2499 178.133C44.7268 177.564 45.0748 176.899 45.2699 176.183H55.8749C68.333 187.225 83.7629 194.361 100.245 196.703L107.565 204.015C107.211 204.722 107.022 205.499 107.011 206.289C106.999 207.08 107.167 207.862 107.5 208.578C107.833 209.295 108.324 209.927 108.936 210.427C109.547 210.928 110.264 211.284 111.032 211.468C111.8 211.653 112.601 211.662 113.373 211.495C114.145 211.327 114.87 210.988 115.492 210.501C116.115 210.015 116.62 209.394 116.969 208.685C117.319 207.976 117.503 207.198 117.51 206.408C117.506 205.573 117.3 204.752 116.91 204.015L124.23 196.703C140.712 194.361 156.142 187.225 168.6 176.183H180.187C180.391 176.439 180.62 176.675 180.87 176.888C181.399 177.335 182.011 177.674 182.671 177.884C183.331 178.094 184.026 178.171 184.717 178.111C185.407 178.051 186.078 177.855 186.693 177.535C187.307 177.214 187.851 176.775 188.295 176.243L188.332 176.183C188.983 175.389 189.386 174.423 189.494 173.402C189.601 172.382 189.406 171.353 188.935 170.441C188.463 169.53 187.735 168.777 186.84 168.275C185.945 167.774 184.923 167.545 183.9 167.618L181.177 162.368C189.345 151.154 194.634 138.108 196.582 124.373L203.895 117.053C204.632 117.443 205.453 117.649 206.287 117.653C207.686 117.653 209.027 117.097 210.016 116.108C211.004 115.12 211.56 113.778 211.56 112.38C211.56 110.982 211.004 109.641 210.016 108.652C209.027 107.663 207.686 107.108 206.287 107.108L206.302 107.07ZM27.3599 119.738L22.6724 115.058C23.1773 114.243 23.4448 113.304 23.4448 112.346C23.4448 111.388 23.1773 110.449 22.6724 109.635L27.3599 104.948C27.1499 107.385 27.0224 109.853 27.0224 112.343C27.0224 114.833 27.1499 117.3 27.3599 119.738ZM179.017 51.3826C178.94 52.2265 179.068 53.0766 179.391 53.8602C179.713 54.6438 180.221 55.3377 180.87 55.8826C180.967 55.9651 181.08 56.0251 181.185 56.1001L179.265 59.8501C176.931 56.8784 174.406 54.0624 171.705 51.4201L179.017 51.3826ZM109.5 22.7776C110.314 23.2824 111.253 23.5499 112.211 23.5499C113.169 23.5499 114.108 23.2824 114.922 22.7776L119.602 27.4651C117.165 27.2551 114.705 27.1276 112.207 27.1276C109.71 27.1276 107.25 27.2551 104.812 27.4651L109.5 22.7776ZM44.2499 55.2301C45.1454 54.1574 45.5819 52.775 45.4649 51.3826H52.7624C50.0645 54.0233 47.544 56.8394 45.2174 59.8126L43.2974 56.0626C43.6442 55.8205 43.9636 55.5414 44.2499 55.2301V55.2301ZM45.2849 173.303C44.9981 172.289 44.4127 171.384 43.6049 170.708C43.2799 170.439 42.922 170.212 42.5399 170.033L45.2099 164.88C47.539 167.851 50.062 170.665 52.7624 173.303H45.2849ZM114.945 201.908C114.131 201.403 113.192 201.135 112.234 201.135C111.276 201.135 110.337 201.403 109.522 201.908L104.842 197.25C107.28 197.46 109.747 197.595 112.237 197.595C114.727 197.595 117.195 197.46 119.632 197.25L114.945 201.908ZM171.345 75.1051L147.63 51.3826H156.075C163.079 56.4446 169.167 62.6667 174.075 69.7801L171.345 75.1051ZM175.912 72.5476C178.691 76.9677 181.001 81.6656 182.805 86.5651L173.49 77.2501L175.912 72.5476ZM175.792 114.135C171.02 118.05 165.829 121.423 160.312 124.193L160.935 123.705C162.572 122.407 164.13 121.012 165.6 119.528C166.549 118.575 167.448 117.574 168.292 116.528C168.87 115.778 169.155 115.41 169.155 115.41C169.155 115.41 168.802 115.755 168.12 116.37C167.437 116.985 166.387 117.825 165.037 118.868C163.687 119.91 161.985 121.08 159.982 122.34C158.977 122.963 157.92 123.638 156.742 124.245C155.565 124.853 154.387 125.58 153.067 126.188L151.087 127.155C150.397 127.47 149.685 127.748 148.972 128.055L146.797 129L144.502 129.833L142.147 130.68L139.68 131.43L137.16 132.18L134.565 132.788L131.917 133.395C131.025 133.598 130.11 133.695 129.202 133.853L127.702 134.093C126.532 134.243 125.34 134.378 124.132 134.498C128.125 132.351 131.462 129.164 133.79 125.273C136.117 121.383 137.348 116.936 137.352 112.403C137.356 107.869 136.133 103.42 133.812 99.5256C131.491 95.6316 128.159 92.4385 124.17 90.2851C127.867 90.6526 131.362 91.1851 134.67 91.8376L137.167 92.4151L139.687 93.1651L142.155 93.9151L144.51 94.7701L146.805 95.6026L148.987 96.5326C149.737 96.8401 150.412 97.1176 151.102 97.4251L153.082 98.4001C154.402 99.0076 155.602 99.6976 156.757 100.343C157.912 100.988 159.007 101.625 159.997 102.248C162 103.5 163.687 104.693 165.052 105.72C166.417 106.748 167.445 107.61 168.135 108.218C168.825 108.825 169.17 109.178 169.17 109.178C169.17 109.178 168.885 108.78 168.307 108.06C167.461 107.015 166.562 106.014 165.615 105.06C164.145 103.578 162.587 102.186 160.95 100.89V100.89C162.247 101.565 163.485 102.233 164.617 102.885C168.557 105.151 172.3 107.743 175.807 110.633L141.622 112.425L175.792 114.135ZM48.5924 110.618C53.2098 106.819 58.2239 103.53 63.5474 100.808V100.808C61.903 102.108 60.3401 103.508 58.8674 105C57.92 105.952 57.0237 106.953 56.1824 108C55.5974 108.75 55.3199 109.118 55.3199 109.118C55.3199 109.118 55.6649 108.773 56.3474 108.158C57.0299 107.543 58.0799 106.703 59.4374 105.66C60.7949 104.618 62.4899 103.448 64.4924 102.188C65.4974 101.573 66.5474 100.898 67.7249 100.283C68.9024 99.6676 70.0874 98.9551 71.3999 98.3476L73.3874 97.3726C74.0699 97.0651 74.7899 96.7801 75.5024 96.4801L77.6774 95.5426L79.9799 94.7101L82.3349 93.8626L84.8024 93.1126L87.3149 92.3626L89.9174 91.7551L90.7724 91.5601C93.8074 90.9901 96.9999 90.5376 100.35 90.2026C96.35 92.3478 93.006 95.5368 90.6736 99.4306C88.3413 103.324 87.1076 107.777 87.1037 112.316C87.0999 116.855 88.326 121.31 90.6518 125.208C92.9776 129.106 96.3161 132.301 100.312 134.453C98.9174 134.31 97.5524 134.153 96.2099 133.965L95.2799 133.823C94.3649 133.665 93.4499 133.56 92.5649 133.365L89.9174 132.758L87.3149 132.15L84.8024 131.4L82.3349 130.688L79.9799 129.833L77.6774 129L75.5024 128.07C74.7524 127.763 74.0699 127.485 73.3874 127.178L71.3999 126.203C70.0874 125.595 68.8874 124.905 67.7249 124.268C66.5624 123.63 65.4749 122.978 64.4924 122.355C62.4899 121.103 60.7949 119.91 59.4374 118.883C58.0799 117.855 57.0374 117 56.3474 116.393C55.6574 115.785 55.3199 115.433 55.3199 115.433C55.3199 115.433 55.5974 115.83 56.1824 116.55C57.0237 117.597 57.92 118.598 58.8674 119.55C60.3378 121.032 61.8956 122.424 63.5324 123.72L64.1399 124.2C62.6399 123.45 61.1924 122.655 59.8799 121.898C55.9149 119.617 52.1513 117.002 48.6299 114.083L81.4874 112.358L48.5924 110.618ZM94.9724 100.163C94.972 99.238 95.2342 98.3322 95.7284 97.5507C96.2226 96.7692 96.9286 96.1441 97.7642 95.7482C98.5998 95.3523 99.5306 95.2017 100.448 95.3141C101.366 95.4265 102.233 95.7972 102.949 96.3831C103.664 96.9689 104.198 97.7459 104.489 98.6236C104.78 99.5012 104.816 100.443 104.593 101.341C104.369 102.238 103.895 103.053 103.227 103.692C102.558 104.33 101.722 104.766 100.815 104.948C100.899 105.223 100.944 105.508 100.95 105.795C100.952 106.326 100.817 106.849 100.557 107.313C100.298 107.776 99.9227 108.165 99.4688 108.441C99.0148 108.717 98.4973 108.871 97.9663 108.888C97.4353 108.905 96.909 108.784 96.4383 108.538C95.9676 108.292 95.5685 107.928 95.2798 107.482C94.9911 107.036 94.8226 106.523 94.7906 105.993C94.7585 105.462 94.8641 104.933 95.097 104.455C95.3299 103.978 95.6823 103.569 96.1199 103.268C95.3842 102.4 94.9779 101.3 94.9724 100.163V100.163ZM113.722 126.563C117.274 124.616 120.099 121.572 121.776 117.886C123.453 114.2 123.892 110.07 123.027 106.114C122.161 102.158 120.039 98.5884 116.976 95.9393C113.913 93.2901 110.074 91.7038 106.035 91.4176C109.807 90.2782 113.818 90.1796 117.642 91.1323C121.466 92.0851 124.961 94.0537 127.758 96.8299C130.555 99.6061 132.549 103.087 133.53 106.903C134.511 110.72 134.443 114.731 133.331 118.512C132.22 122.293 130.107 125.703 127.217 128.382C124.326 131.06 120.765 132.908 116.911 133.729C113.057 134.55 109.052 134.314 105.321 133.046C101.59 131.778 98.2707 129.525 95.7149 126.525C98.4676 128.035 101.555 128.83 104.695 128.837C107.835 128.843 110.926 128.061 113.685 126.563H113.722ZM112.275 83.8801C103.318 83.8513 94.3853 84.8197 85.6424 86.7676L103.942 51.3826H120.615L138.907 86.7676C130.152 84.817 121.207 83.8485 112.237 83.8801H112.275ZM81.9299 87.6751C75.4719 89.3549 69.1924 91.6582 63.1799 94.5526L54.5174 77.7976L80.9249 51.3826H100.657L81.9299 87.6751ZM81.9299 137.01L100.68 173.303H80.9249L54.5174 146.895L63.1799 130.14C69.1807 133.03 75.4475 135.33 81.8924 137.01H81.9299ZM85.6799 137.918C103.221 141.765 121.388 141.765 138.93 137.918L120.637 173.303H103.897L85.6799 137.918ZM142.68 137.01C149.122 135.33 155.387 133.03 161.385 130.14L170.055 146.895L143.55 173.303H123.817L142.68 137.01ZM142.68 87.6751L123.93 51.3826H143.55L169.965 77.7976L161.295 94.5526C155.297 91.6605 149.033 89.3572 142.59 87.6751H142.68ZM144.75 48.5026L138 41.7526C142.808 43.5267 147.422 45.7885 151.77 48.5026H144.75ZM140.677 48.5026H122.332L116.565 37.3501C121.802 37.6466 126.994 38.4963 132.052 39.8851L140.677 48.5026ZM119.092 48.5026H105.39L111.217 37.2526C111.555 37.2526 111.892 37.2526 112.237 37.2526C112.582 37.2526 112.92 37.2526 113.265 37.2526L119.092 48.5026ZM102.157 48.5026H83.8049L92.4224 39.8851C97.4835 38.4957 102.677 37.646 107.917 37.3501L102.157 48.5026ZM79.7399 48.5026H72.6974C77.0424 45.7885 81.6539 43.5266 86.4599 41.7526L79.7399 48.5026ZM76.8599 51.3826L53.1224 75.1051L50.3699 69.7501C55.2765 62.6357 61.3644 56.4134 68.3699 51.3526L76.8599 51.3826ZM50.9999 77.2501L41.6624 86.5651C43.4694 81.667 45.7792 76.9694 48.5549 72.5476L50.9999 77.2501ZM52.3874 79.9426L60.6374 95.8501C53.245 99.5983 46.4569 104.435 40.4999 110.198L40.2224 110.475C39.0599 111.645 38.4899 112.343 38.4899 112.343C38.4899 112.343 39.0599 113.04 40.2224 114.21L40.4999 114.488C46.445 120.25 53.2203 125.089 60.5999 128.843L52.3724 144.75L39.7499 132.158C36.1901 119.187 36.1901 105.498 39.7499 92.5276L52.3874 79.9426ZM50.9999 147.443L48.5699 152.138C45.7913 147.717 43.4813 143.02 41.6774 138.12L50.9999 147.443ZM53.1374 149.58L76.8599 173.303H68.3999C61.3954 168.241 55.3078 162.018 50.3999 154.905L53.1374 149.58ZM79.7474 176.183L86.4974 182.933C81.6877 181.162 77.0734 178.9 72.7274 176.183H79.7474ZM83.8199 176.183H102.15L107.917 187.343C102.678 187.041 97.484 186.188 92.4224 184.8L83.8199 176.183ZM105.405 176.183H119.1L113.28 187.433C112.935 187.433 112.597 187.433 112.252 187.433C111.907 187.433 111.57 187.433 111.232 187.433L105.405 176.183ZM116.572 187.343L122.347 176.183H140.685L132.052 184.8C126.991 186.188 121.797 187.041 116.557 187.343H116.572ZM138.03 182.918L144.78 176.168H151.815C147.455 178.887 142.825 181.149 138 182.918H138.03ZM156.09 173.303H147.63L171.352 149.58L174.105 154.905C169.19 162.023 163.092 168.245 156.075 173.303H156.09ZM180.225 169.5C179.778 170.028 179.44 170.639 179.231 171.298C179.021 171.957 178.943 172.651 179.002 173.34H171.705C174.402 170.688 176.922 167.862 179.25 164.88L181.17 168.593C180.816 168.852 180.499 169.157 180.225 169.5V169.5ZM175.92 152.175L173.49 147.48L182.812 138.158C181.006 143.044 178.696 147.729 175.92 152.138V152.175ZM184.695 132.195L172.102 144.75L163.852 128.835C178.785 121.05 185.962 112.335 185.962 112.335C185.962 112.335 178.785 103.62 163.852 95.8351L172.102 79.9276L184.695 92.5201C188.265 105.489 188.265 119.181 184.695 132.15V132.195ZM192.075 108.15C192.022 107.46 191.962 106.695 191.895 105.848C191.851 104.923 191.741 104.003 191.565 103.095C191.212 101.13 190.815 98.8726 190.365 96.3451C189.66 93.8776 188.97 91.0951 188.032 88.1776L186.277 83.6776C185.97 82.9276 185.685 82.1026 185.34 81.3151C184.995 80.5276 184.552 79.7626 184.155 78.9676C177.477 64.9293 166.799 53.1782 153.462 45.1914C140.125 37.2046 124.724 33.3385 109.196 34.0791C93.6684 34.8197 78.7058 40.1339 66.1894 49.3537C53.673 58.5735 44.1613 71.2875 38.8499 85.8976C38.3999 87.2326 37.7999 88.5226 37.4624 89.8876C37.1249 91.2526 36.7124 92.6176 36.3974 93.9676C35.5499 96.6751 35.3024 99.4051 34.8224 102.105L34.4999 104.138C34.4399 104.835 34.4174 105.548 34.3724 106.253C34.2899 107.663 34.2074 109.073 34.1324 110.475L34.0724 111.525V112.05V112.313C34.0711 112.335 34.0711 112.358 34.0724 112.38V112.5L34.1624 114.548C34.2224 115.905 34.2824 117.263 34.3424 118.605C35.3904 132.488 40.0531 145.856 47.8672 157.379C55.6813 168.902 66.3747 178.18 78.8849 184.29L81.2324 185.483C82.0199 185.82 82.8149 186.113 83.5874 186.42L88.0874 188.168C91.0274 189.105 93.7874 189.795 96.2549 190.508L103.005 191.7C103.913 191.876 104.833 191.987 105.757 192.03L108.067 192.21L112.297 192.54L108.06 192.443L105.742 192.39C104.814 192.4 103.887 192.34 102.967 192.21L95.9999 191.295C93.4799 190.68 90.6599 190.103 87.6374 189.27L83.0099 187.68C82.2074 187.395 81.3824 187.14 80.5649 186.825L78.1274 185.715C70.6318 182.48 63.7156 178.042 57.6524 172.575C50.3667 166.148 44.2864 158.473 39.6974 149.91C34.5398 140.304 31.4101 129.741 30.5024 118.875C30.4199 117.465 30.3374 116.048 30.2624 114.623L30.1424 112.5V111.878V111.353L30.2249 110.25L30.4049 106.028C30.4424 105.323 30.4574 104.618 30.5174 103.905L30.8249 101.715C31.2824 98.8051 31.5749 95.8051 32.3924 92.9776C32.7524 91.5526 33.1424 90.1126 33.4874 88.6801C33.8324 87.2476 34.4549 85.8676 34.9274 84.4576C38.9404 73.0412 45.4675 62.6725 54.0262 54.1176C62.585 45.5627 72.9567 39.0404 84.3749 35.0326C95.3721 31.1095 107.085 29.5978 118.717 30.6001C129.603 31.5003 140.188 34.6302 149.812 39.7951C158.381 44.3861 166.063 50.466 172.5 57.7501C177.972 63.823 182.411 70.7525 185.64 78.2626C186.015 79.0876 186.39 79.8976 186.75 80.7001C187.11 81.5026 187.327 82.3426 187.612 83.1376C188.157 84.7426 188.685 86.2876 189.195 87.7726C190.027 90.7726 190.612 93.6151 191.22 96.1351C191.55 98.7076 191.85 101.003 192.105 103.005C192.235 103.924 192.295 104.852 192.285 105.78C192.285 106.635 192.322 107.408 192.337 108.105C192.397 110.865 192.435 112.343 192.435 112.343C192.435 112.343 192.292 110.873 192.075 108.113V108.15ZM201.825 115.095L197.137 119.775C197.347 117.338 197.482 114.878 197.482 112.38C197.482 109.883 197.347 107.423 197.137 104.985L201.825 109.673C201.32 110.487 201.053 111.426 201.053 112.384C201.053 113.342 201.32 114.281 201.825 115.095V115.095Z" fill="white"/>
<path d="M216.367 109.71C215.844 109.708 215.333 109.862 214.898 110.152C214.462 110.441 214.123 110.853 213.922 111.336C213.721 111.819 213.668 112.35 213.77 112.863C213.872 113.376 214.123 113.847 214.493 114.217C214.863 114.586 215.334 114.838 215.846 114.939C216.359 115.041 216.891 114.988 217.373 114.787C217.856 114.587 218.268 114.247 218.558 113.812C218.847 113.377 219.001 112.865 219 112.342C219 111.644 218.722 110.975 218.229 110.481C217.735 109.987 217.065 109.71 216.367 109.71V109.71Z" fill="white"/>
<path d="M8.11471 109.71C7.59193 109.708 7.08049 109.862 6.64519 110.152C6.2099 110.441 5.87036 110.853 5.66962 111.336C5.46887 111.819 5.41596 112.35 5.51759 112.863C5.61921 113.376 5.8708 113.847 6.24046 114.217C6.61012 114.586 7.08121 114.838 7.59402 114.939C8.10683 115.041 8.63826 114.988 9.12097 114.787C9.60367 114.587 10.0159 114.247 10.3054 113.812C10.5949 113.377 10.7487 112.865 10.7472 112.342C10.7452 111.645 10.4672 110.976 9.97398 110.483C9.48072 109.99 8.81229 109.712 8.11471 109.71V109.71Z" fill="white"/>
<path d="M107.107 157.815C108.316 158.83 109.798 159.463 111.366 159.635C112.935 159.808 114.519 159.511 115.919 158.783C117.319 158.056 118.472 156.929 119.232 155.546C119.992 154.163 120.325 152.586 120.188 151.014C120.052 149.442 119.453 147.946 118.466 146.714C117.48 145.483 116.151 144.571 114.646 144.095C113.142 143.619 111.53 143.6 110.015 144.039C108.499 144.479 107.148 145.358 106.132 146.565C105.454 147.366 104.941 148.294 104.623 149.294C104.305 150.294 104.188 151.347 104.279 152.393C104.369 153.439 104.666 154.456 105.151 155.387C105.637 156.317 106.302 157.143 107.107 157.815V157.815ZM108.337 148.433C108.986 147.662 109.848 147.101 110.815 146.82C111.782 146.539 112.811 146.551 113.771 146.855C114.731 147.159 115.579 147.74 116.209 148.526C116.839 149.312 117.221 150.267 117.308 151.27C117.395 152.274 117.183 153.28 116.698 154.163C116.213 155.045 115.477 155.764 114.584 156.229C113.69 156.693 112.679 156.882 111.678 156.772C110.677 156.662 109.731 156.258 108.96 155.61C108.448 155.18 108.025 154.653 107.716 154.059C107.408 153.466 107.219 152.817 107.161 152.15C107.104 151.484 107.178 150.812 107.379 150.175C107.581 149.537 107.907 148.945 108.337 148.433V148.433Z" fill="white"/>
<path d="M109.185 164.04C108.677 164.644 108.359 165.385 108.272 166.17C108.185 166.954 108.333 167.747 108.697 168.448C109.061 169.148 109.624 169.725 110.316 170.106C111.008 170.486 111.797 170.652 112.583 170.584C113.369 170.516 114.118 170.216 114.734 169.722C115.35 169.228 115.805 168.563 116.043 167.81C116.281 167.057 116.29 166.251 116.069 165.493C115.848 164.735 115.407 164.06 114.803 163.553C114.402 163.215 113.939 162.96 113.44 162.802C112.94 162.644 112.415 162.586 111.893 162.631C111.371 162.676 110.863 162.824 110.399 163.066C109.934 163.308 109.522 163.639 109.185 164.04V164.04Z" fill="white"/>
<path d="M112.238 65.0025C110.421 65.0008 108.658 65.619 107.24 66.7549C105.823 67.8909 104.835 69.4766 104.44 71.25C104.046 73.0233 104.269 74.8782 105.071 76.508C105.874 78.1378 107.208 79.4449 108.855 80.2134C110.501 80.9819 112.36 81.1657 114.125 80.7344C115.889 80.3031 117.454 79.2826 118.56 77.8415C119.666 76.4004 120.248 74.625 120.208 72.8088C120.169 70.9925 119.511 69.2441 118.343 67.8525C117.595 66.9598 116.662 66.2419 115.607 65.7495C114.552 65.2571 113.402 65.0021 112.238 65.0025V65.0025ZM115.5 76.8825C114.728 77.5327 113.781 77.9392 112.778 78.0506C111.775 78.1621 110.761 77.9735 109.866 77.5087C108.97 77.0439 108.232 76.3238 107.746 75.4395C107.26 74.5552 107.047 73.5466 107.134 72.5412C107.221 71.5358 107.604 70.5788 108.236 69.7915C108.867 69.0042 109.718 68.4218 110.68 68.1182C111.643 67.8145 112.673 67.8032 113.642 68.0857C114.611 68.3682 115.474 68.9317 116.123 69.705C116.987 70.7416 117.406 72.0776 117.289 73.422C117.173 74.7663 116.53 76.0102 115.5 76.8825V76.8825Z" fill="white"/>
<path d="M114.803 61.1327C115.407 60.6253 115.848 59.9499 116.069 59.192C116.29 58.4341 116.281 57.6277 116.043 56.875C115.805 56.1222 115.35 55.4568 114.734 54.963C114.118 54.4692 113.369 54.1693 112.583 54.101C111.797 54.0328 111.008 54.1993 110.316 54.5796C109.624 54.9599 109.061 55.5369 108.697 56.2375C108.333 56.938 108.185 57.7308 108.272 58.5154C108.359 59.3 108.677 60.0412 109.185 60.6452C109.522 61.0465 109.934 61.3776 110.399 61.6194C110.863 61.8612 111.371 62.0089 111.893 62.0542C112.415 62.0995 112.94 62.0414 113.44 61.8833C113.939 61.7251 114.402 61.4701 114.803 61.1327V61.1327Z" fill="white"/>
</svg>
