<svg width="147" height="69" viewBox="0 0 147 69" fill="none" xmlns="http://www.w3.org/2000/svg">
<g opacity="0.5">
<path opacity="0.3" d="M107.873 66.3547H101.803C101.578 66.3547 101.396 66.5371 101.396 66.762V67.7007C101.396 67.9257 101.578 68.1081 101.803 68.1081H107.873C108.098 68.1081 108.281 67.9257 108.281 67.7007V66.762C108.281 66.5371 108.098 66.3547 107.873 66.3547Z" fill="white"/>
<path opacity="0.3" d="M107.873 63.5696H101.803C101.578 63.5696 101.396 63.7519 101.396 63.9769V64.9156C101.396 65.1406 101.578 65.323 101.803 65.323H107.873C108.098 65.323 108.281 65.1406 108.281 64.9156V63.9769C108.281 63.7519 108.098 63.5696 107.873 63.5696Z" fill="white"/>
<path opacity="0.3" d="M107.873 60.7802H101.803C101.578 60.7802 101.396 60.9625 101.396 61.1875V62.1262C101.396 62.3511 101.578 62.5335 101.803 62.5335H107.873C108.098 62.5335 108.281 62.3511 108.281 62.1262V61.1875C108.281 60.9625 108.098 60.7802 107.873 60.7802Z" fill="white"/>
<path opacity="0.3" d="M107.873 57.9951H101.803C101.578 57.9951 101.396 58.1775 101.396 58.4024V59.3411C101.396 59.5661 101.578 59.7484 101.803 59.7484H107.873C108.098 59.7484 108.281 59.5661 108.281 59.3411V58.4024C108.281 58.1775 108.098 57.9951 107.873 57.9951Z" fill="white"/>
<path opacity="0.3" d="M107.873 55.2057H101.803C101.578 55.2057 101.396 55.3881 101.396 55.613V56.5517C101.396 56.7767 101.578 56.9591 101.803 56.9591H107.873C108.098 56.9591 108.281 56.7767 108.281 56.5517V55.613C108.281 55.3881 108.098 55.2057 107.873 55.2057Z" fill="white"/>
<path opacity="0.3" d="M107.873 52.4206H101.803C101.578 52.4206 101.396 52.603 101.396 52.8279V53.7666C101.396 53.9916 101.578 54.174 101.803 54.174H107.873C108.098 54.174 108.281 53.9916 108.281 53.7666V52.8279C108.281 52.603 108.098 52.4206 107.873 52.4206Z" fill="white"/>
<path opacity="0.3" d="M107.873 49.6356H101.803C101.578 49.6356 101.396 49.8179 101.396 50.0429V50.9816C101.396 51.2066 101.578 51.3889 101.803 51.3889H107.873C108.098 51.3889 108.281 51.2066 108.281 50.9816V50.0429C108.281 49.8179 108.098 49.6356 107.873 49.6356Z" fill="white"/>
<path opacity="0.3" d="M107.873 46.8461H101.803C101.578 46.8461 101.396 47.0285 101.396 47.2534V48.1921C101.396 48.4171 101.578 48.5995 101.803 48.5995H107.873C108.098 48.5995 108.281 48.4171 108.281 48.1921V47.2534C108.281 47.0285 108.098 46.8461 107.873 46.8461Z" fill="white"/>
<path opacity="0.3" d="M107.873 44.061H101.803C101.578 44.061 101.396 44.2434 101.396 44.4684V45.4071C101.396 45.632 101.578 45.8144 101.803 45.8144H107.873C108.098 45.8144 108.281 45.632 108.281 45.4071V44.4684C108.281 44.2434 108.098 44.061 107.873 44.061Z" fill="white"/>
<path opacity="0.3" d="M107.873 41.2715H101.803C101.578 41.2715 101.396 41.4539 101.396 41.6789V42.6176C101.396 42.8426 101.578 43.0249 101.803 43.0249H107.873C108.098 43.0249 108.281 42.8426 108.281 42.6176V41.6789C108.281 41.4539 108.098 41.2715 107.873 41.2715Z" fill="white"/>
<path opacity="0.3" d="M107.873 38.4866H101.803C101.578 38.4866 101.396 38.6689 101.396 38.8939V39.8326C101.396 40.0576 101.578 40.24 101.803 40.24H107.873C108.098 40.24 108.281 40.0576 108.281 39.8326V38.8939C108.281 38.6689 108.098 38.4866 107.873 38.4866Z" fill="white"/>
<path opacity="0.3" d="M107.873 35.7015H101.803C101.578 35.7015 101.396 35.8838 101.396 36.1088V37.0475C101.396 37.2725 101.578 37.4549 101.803 37.4549H107.873C108.098 37.4549 108.281 37.2725 108.281 37.0475V36.1088C108.281 35.8838 108.098 35.7015 107.873 35.7015Z" fill="white"/>
<path opacity="0.3" d="M107.873 32.912H101.803C101.578 32.912 101.396 33.0944 101.396 33.3193V34.258C101.396 34.483 101.578 34.6654 101.803 34.6654H107.873C108.098 34.6654 108.281 34.483 108.281 34.258V33.3193C108.281 33.0944 108.098 32.912 107.873 32.912Z" fill="white"/>
<path opacity="0.3" d="M107.873 30.127H101.803C101.578 30.127 101.396 30.3093 101.396 30.5343V31.473C101.396 31.6979 101.578 31.8803 101.803 31.8803H107.873C108.098 31.8803 108.281 31.6979 108.281 31.473V30.5343C108.281 30.3093 108.098 30.127 107.873 30.127Z" fill="white"/>
<path opacity="0.3" d="M107.873 27.342H101.803C101.578 27.342 101.396 27.5244 101.396 27.7493V28.688C101.396 28.913 101.578 29.0954 101.803 29.0954H107.873C108.098 29.0954 108.281 28.913 108.281 28.688V27.7493C108.281 27.5244 108.098 27.342 107.873 27.342Z" fill="white"/>
<path opacity="0.3" d="M107.873 24.5524H101.803C101.578 24.5524 101.396 24.7348 101.396 24.9598V25.8984C101.396 26.1234 101.578 26.3058 101.803 26.3058H107.873C108.098 26.3058 108.281 26.1234 108.281 25.8984V24.9598C108.281 24.7348 108.098 24.5524 107.873 24.5524Z" fill="white"/>
<path opacity="0.3" d="M107.873 21.7675H101.803C101.578 21.7675 101.396 21.9498 101.396 22.1748V23.1135C101.396 23.3385 101.578 23.5208 101.803 23.5208H107.873C108.098 23.5208 108.281 23.3385 108.281 23.1135V22.1748C108.281 21.9498 108.098 21.7675 107.873 21.7675Z" fill="white"/>
<path opacity="0.3" d="M107.873 18.9779H101.803C101.578 18.9779 101.396 19.1603 101.396 19.3853V20.3239C101.396 20.5489 101.578 20.7313 101.803 20.7313H107.873C108.098 20.7313 108.281 20.5489 108.281 20.3239V19.3853C108.281 19.1603 108.098 18.9779 107.873 18.9779Z" fill="white"/>
<path opacity="0.3" d="M107.873 16.1929H101.803C101.578 16.1929 101.396 16.3752 101.396 16.6002V17.5389C101.396 17.7639 101.578 17.9462 101.803 17.9462H107.873C108.098 17.9462 108.281 17.7639 108.281 17.5389V16.6002C108.281 16.3752 108.098 16.1929 107.873 16.1929Z" fill="white"/>
</g>
<g opacity="0.5">
<path opacity="0.3" d="M117.539 66.3546H111.468C111.243 66.3546 111.061 66.537 111.061 66.762V67.7007C111.061 67.9256 111.243 68.108 111.468 68.108H117.539C117.764 68.108 117.946 67.9256 117.946 67.7007V66.762C117.946 66.537 117.764 66.3546 117.539 66.3546Z" fill="white"/>
<path opacity="0.3" d="M117.539 63.5696H111.468C111.243 63.5696 111.061 63.752 111.061 63.977V64.9157C111.061 65.1406 111.243 65.323 111.468 65.323H117.539C117.764 65.323 117.946 65.1406 117.946 64.9157V63.977C117.946 63.752 117.764 63.5696 117.539 63.5696Z" fill="white"/>
<path opacity="0.3" d="M117.539 60.7801H111.468C111.243 60.7801 111.061 60.9625 111.061 61.1874V62.1261C111.061 62.3511 111.243 62.5335 111.468 62.5335H117.539C117.764 62.5335 117.946 62.3511 117.946 62.1261V61.1874C117.946 60.9625 117.764 60.7801 117.539 60.7801Z" fill="white"/>
<path opacity="0.3" d="M117.539 57.9951H111.468C111.243 57.9951 111.061 58.1775 111.061 58.4025V59.3412C111.061 59.5661 111.243 59.7485 111.468 59.7485H117.539C117.764 59.7485 117.946 59.5661 117.946 59.3412V58.4025C117.946 58.1775 117.764 57.9951 117.539 57.9951Z" fill="white"/>
<path opacity="0.3" d="M117.539 55.2057H111.468C111.243 55.2057 111.061 55.3881 111.061 55.613V56.5517C111.061 56.7767 111.243 56.9591 111.468 56.9591H117.539C117.764 56.9591 117.946 56.7767 117.946 56.5517V55.613C117.946 55.3881 117.764 55.2057 117.539 55.2057Z" fill="white"/>
<path opacity="0.3" d="M117.539 52.4206H111.468C111.243 52.4206 111.061 52.603 111.061 52.8279V53.7666C111.061 53.9916 111.243 54.174 111.468 54.174H117.539C117.764 54.174 117.946 53.9916 117.946 53.7666V52.8279C117.946 52.603 117.764 52.4206 117.539 52.4206Z" fill="white"/>
<path opacity="0.3" d="M117.539 49.6356H111.468C111.243 49.6356 111.061 49.8179 111.061 50.0429V50.9816C111.061 51.2066 111.243 51.3889 111.468 51.3889H117.539C117.764 51.3889 117.946 51.2066 117.946 50.9816V50.0429C117.946 49.8179 117.764 49.6356 117.539 49.6356Z" fill="white"/>
<path opacity="0.3" d="M117.539 46.8461H111.468C111.243 46.8461 111.061 47.0285 111.061 47.2534V48.1921C111.061 48.4171 111.243 48.5995 111.468 48.5995H117.539C117.764 48.5995 117.946 48.4171 117.946 48.1921V47.2534C117.946 47.0285 117.764 46.8461 117.539 46.8461Z" fill="white"/>
<path opacity="0.3" d="M117.539 44.061H111.468C111.243 44.061 111.061 44.2434 111.061 44.4684V45.4071C111.061 45.632 111.243 45.8144 111.468 45.8144H117.539C117.764 45.8144 117.946 45.632 117.946 45.4071V44.4684C117.946 44.2434 117.764 44.061 117.539 44.061Z" fill="white"/>
<path opacity="0.3" d="M117.539 41.2715H111.468C111.243 41.2715 111.061 41.4539 111.061 41.6789V42.6176C111.061 42.8426 111.243 43.0249 111.468 43.0249H117.539C117.764 43.0249 117.946 42.8426 117.946 42.6176V41.6789C117.946 41.4539 117.764 41.2715 117.539 41.2715Z" fill="white"/>
<path opacity="0.3" d="M117.54 38.4865H111.469C111.244 38.4865 111.062 38.6689 111.062 38.8939V39.8325C111.062 40.0575 111.244 40.2399 111.469 40.2399H117.54C117.765 40.2399 117.947 40.0575 117.947 39.8325V38.8939C117.947 38.6689 117.765 38.4865 117.54 38.4865Z" fill="white"/>
</g>
<g opacity="0.5">
<path opacity="0.3" d="M127.492 66.3546H121.421C121.196 66.3546 121.014 66.537 121.014 66.762V67.7007C121.014 67.9256 121.196 68.108 121.421 68.108H127.492C127.717 68.108 127.899 67.9256 127.899 67.7007V66.762C127.899 66.537 127.717 66.3546 127.492 66.3546Z" fill="white"/>
<path opacity="0.3" d="M127.492 63.5696H121.421C121.196 63.5696 121.014 63.7519 121.014 63.9769V64.9156C121.014 65.1406 121.196 65.323 121.421 65.323H127.492C127.717 65.323 127.899 65.1406 127.899 64.9156V63.9769C127.899 63.7519 127.717 63.5696 127.492 63.5696Z" fill="white"/>
<path opacity="0.3" d="M127.492 60.7802H121.421C121.196 60.7802 121.014 60.9625 121.014 61.1875V62.1262C121.014 62.3511 121.196 62.5335 121.421 62.5335H127.492C127.717 62.5335 127.899 62.3511 127.899 62.1262V61.1875C127.899 60.9625 127.717 60.7802 127.492 60.7802Z" fill="white"/>
<path opacity="0.3" d="M127.492 57.9951H121.421C121.196 57.9951 121.014 58.1775 121.014 58.4024V59.3411C121.014 59.5661 121.196 59.7484 121.421 59.7484H127.492C127.717 59.7484 127.899 59.5661 127.899 59.3411V58.4024C127.899 58.1775 127.717 57.9951 127.492 57.9951Z" fill="white"/>
<path opacity="0.3" d="M127.492 55.2056H121.422C121.197 55.2056 121.014 55.388 121.014 55.613V56.5516C121.014 56.7766 121.197 56.959 121.422 56.959H127.492C127.717 56.959 127.9 56.7766 127.9 56.5516V55.613C127.9 55.388 127.717 55.2056 127.492 55.2056Z" fill="white"/>
</g>
<g opacity="0.5">
<path opacity="0.3" d="M137.158 66.3546H131.088C130.863 66.3546 130.68 66.537 130.68 66.7619V67.7006C130.68 67.9256 130.863 68.1079 131.088 68.1079H137.158C137.383 68.1079 137.566 67.9256 137.566 67.7006V66.7619C137.566 66.537 137.383 66.3546 137.158 66.3546Z" fill="white"/>
<path opacity="0.3" d="M137.158 63.5695H131.088C130.863 63.5695 130.68 63.7519 130.68 63.9769V64.9155C130.68 65.1405 130.863 65.3229 131.088 65.3229H137.158C137.383 65.3229 137.566 65.1405 137.566 64.9155V63.9769C137.566 63.7519 137.383 63.5695 137.158 63.5695Z" fill="white"/>
<path opacity="0.3" d="M137.158 60.7801H131.088C130.863 60.7801 130.68 60.9625 130.68 61.1874V62.1261C130.68 62.3511 130.863 62.5335 131.088 62.5335H137.158C137.383 62.5335 137.566 62.3511 137.566 62.1261V61.1874C137.566 60.9625 137.383 60.7801 137.158 60.7801Z" fill="white"/>
<path opacity="0.3" d="M137.158 57.995H131.088C130.863 57.995 130.68 58.1774 130.68 58.4024V59.341C130.68 59.566 130.863 59.7484 131.088 59.7484H137.158C137.383 59.7484 137.566 59.566 137.566 59.341V58.4024C137.566 58.1774 137.383 57.995 137.158 57.995Z" fill="white"/>
<path opacity="0.3" d="M137.158 55.2056H131.088C130.863 55.2056 130.68 55.3879 130.68 55.6129V56.5516C130.68 56.7766 130.863 56.959 131.088 56.959H137.158C137.383 56.959 137.566 56.7766 137.566 56.5516V55.6129C137.566 55.3879 137.383 55.2056 137.158 55.2056Z" fill="white"/>
<path opacity="0.3" d="M137.158 52.4205H131.088C130.863 52.4205 130.68 52.6029 130.68 52.8279V53.7666C130.68 53.9915 130.863 54.1739 131.088 54.1739H137.158C137.383 54.1739 137.566 53.9915 137.566 53.7666V52.8279C137.566 52.6029 137.383 52.4205 137.158 52.4205Z" fill="white"/>
<path opacity="0.3" d="M137.158 49.6354H131.088C130.863 49.6354 130.68 49.8178 130.68 50.0428V50.9815C130.68 51.2064 130.863 51.3888 131.088 51.3888H137.158C137.383 51.3888 137.566 51.2064 137.566 50.9815V50.0428C137.566 49.8178 137.383 49.6354 137.158 49.6354Z" fill="white"/>
<path opacity="0.3" d="M137.158 46.8459H131.088C130.863 46.8459 130.68 47.0283 130.68 47.2533V48.192C130.68 48.417 130.863 48.5993 131.088 48.5993H137.158C137.383 48.5993 137.566 48.417 137.566 48.192V47.2533C137.566 47.0283 137.383 46.8459 137.158 46.8459Z" fill="white"/>
<path opacity="0.3" d="M137.158 44.061H131.088C130.863 44.061 130.681 44.2433 130.681 44.4683V45.407C130.681 45.632 130.863 45.8144 131.088 45.8144H137.158C137.383 45.8144 137.566 45.632 137.566 45.407V44.4683C137.566 44.2433 137.383 44.061 137.158 44.061Z" fill="white"/>
</g>
<g opacity="0.5">
<path opacity="0.3" d="M146.138 66.3547H140.067C139.842 66.3547 139.66 66.5371 139.66 66.762V67.7007C139.66 67.9257 139.842 68.1081 140.067 68.1081H146.138C146.363 68.1081 146.545 67.9257 146.545 67.7007V66.762C146.545 66.5371 146.363 66.3547 146.138 66.3547Z" fill="white"/>
<path opacity="0.3" d="M146.138 63.5696H140.067C139.842 63.5696 139.66 63.752 139.66 63.977V64.9157C139.66 65.1406 139.842 65.323 140.067 65.323H146.138C146.363 65.323 146.545 65.1406 146.545 64.9157V63.977C146.545 63.752 146.363 63.5696 146.138 63.5696Z" fill="white"/>
<path opacity="0.3" d="M146.138 60.7802H140.067C139.842 60.7802 139.66 60.9625 139.66 61.1875V62.1262C139.66 62.3511 139.842 62.5335 140.067 62.5335H146.138C146.363 62.5335 146.545 62.3511 146.545 62.1262V61.1875C146.545 60.9625 146.363 60.7802 146.138 60.7802Z" fill="white"/>
<path opacity="0.3" d="M146.138 57.9951H140.067C139.842 57.9951 139.66 58.1775 139.66 58.4025V59.3412C139.66 59.5661 139.842 59.7485 140.067 59.7485H146.138C146.363 59.7485 146.545 59.5661 146.545 59.3412V58.4025C146.545 58.1775 146.363 57.9951 146.138 57.9951Z" fill="white"/>
<path opacity="0.3" d="M146.138 55.2056H140.067C139.842 55.2056 139.66 55.388 139.66 55.613V56.5516C139.66 56.7766 139.842 56.959 140.067 56.959H146.138C146.363 56.959 146.545 56.7766 146.545 56.5516V55.613C146.545 55.388 146.363 55.2056 146.138 55.2056Z" fill="white"/>
<path opacity="0.3" d="M146.138 52.4206H140.067C139.842 52.4206 139.66 52.603 139.66 52.8279V53.7666C139.66 53.9916 139.842 54.174 140.067 54.174H146.138C146.363 54.174 146.545 53.9916 146.545 53.7666V52.8279C146.545 52.603 146.363 52.4206 146.138 52.4206Z" fill="white"/>
<path opacity="0.3" d="M146.138 49.6355H140.067C139.842 49.6355 139.66 49.8179 139.66 50.0428V50.9815C139.66 51.2065 139.842 51.3889 140.067 51.3889H146.138C146.363 51.3889 146.545 51.2065 146.545 50.9815V50.0428C146.545 49.8179 146.363 49.6355 146.138 49.6355Z" fill="white"/>
<path opacity="0.3" d="M146.138 46.8461H140.067C139.842 46.8461 139.66 47.0285 139.66 47.2534V48.1921C139.66 48.4171 139.842 48.5995 140.067 48.5995H146.138C146.362 48.5995 146.545 48.4171 146.545 48.1921V47.2534C146.545 47.0285 146.362 46.8461 146.138 46.8461Z" fill="white"/>
</g>
<g opacity="0.5">
<path opacity="0.3" d="M44.7423 66.3547H38.6719C38.4469 66.3547 38.2645 66.5371 38.2645 66.762V67.7007C38.2645 67.9257 38.4469 68.1081 38.6719 68.1081H44.7423C44.9673 68.1081 45.1496 67.9257 45.1496 67.7007V66.762C45.1496 66.5371 44.9673 66.3547 44.7423 66.3547Z" fill="white"/>
<path opacity="0.3" d="M44.7423 63.5696H38.6719C38.4469 63.5696 38.2645 63.7519 38.2645 63.9769V64.9156C38.2645 65.1406 38.4469 65.323 38.6719 65.323H44.7423C44.9673 65.323 45.1496 65.1406 45.1496 64.9156V63.9769C45.1496 63.7519 44.9673 63.5696 44.7423 63.5696Z" fill="white"/>
<path opacity="0.3" d="M44.7423 60.7802H38.6719C38.4469 60.7802 38.2645 60.9625 38.2645 61.1875V62.1262C38.2645 62.3511 38.4469 62.5335 38.6719 62.5335H44.7423C44.9673 62.5335 45.1496 62.3511 45.1496 62.1262V61.1875C45.1496 60.9625 44.9673 60.7802 44.7423 60.7802Z" fill="white"/>
<path opacity="0.3" d="M44.7423 57.9951H38.6719C38.4469 57.9951 38.2645 58.1775 38.2645 58.4024V59.3411C38.2645 59.5661 38.4469 59.7484 38.6719 59.7484H44.7423C44.9673 59.7484 45.1496 59.5661 45.1496 59.3411V58.4024C45.1496 58.1775 44.9673 57.9951 44.7423 57.9951Z" fill="white"/>
<path opacity="0.3" d="M44.7423 55.2057H38.6719C38.4469 55.2057 38.2645 55.3881 38.2645 55.613V56.5517C38.2645 56.7767 38.4469 56.9591 38.6719 56.9591H44.7423C44.9673 56.9591 45.1496 56.7767 45.1496 56.5517V55.613C45.1496 55.3881 44.9673 55.2057 44.7423 55.2057Z" fill="white"/>
<path opacity="0.3" d="M44.7423 52.4206H38.6719C38.4469 52.4206 38.2645 52.603 38.2645 52.8279V53.7666C38.2645 53.9916 38.4469 54.174 38.6719 54.174H44.7423C44.9673 54.174 45.1496 53.9916 45.1496 53.7666V52.8279C45.1496 52.603 44.9673 52.4206 44.7423 52.4206Z" fill="white"/>
<path opacity="0.3" d="M44.7423 49.6356H38.6719C38.4469 49.6356 38.2645 49.8179 38.2645 50.0429V50.9816C38.2645 51.2066 38.4469 51.3889 38.6719 51.3889H44.7423C44.9673 51.3889 45.1496 51.2066 45.1496 50.9816V50.0429C45.1496 49.8179 44.9673 49.6356 44.7423 49.6356Z" fill="white"/>
<path opacity="0.3" d="M44.7423 46.8461H38.6719C38.4469 46.8461 38.2645 47.0285 38.2645 47.2534V48.1921C38.2645 48.4171 38.4469 48.5995 38.6719 48.5995H44.7423C44.9673 48.5995 45.1496 48.4171 45.1496 48.1921V47.2534C45.1496 47.0285 44.9673 46.8461 44.7423 46.8461Z" fill="white"/>
<path opacity="0.3" d="M44.7423 44.061H38.6719C38.4469 44.061 38.2645 44.2434 38.2645 44.4684V45.4071C38.2645 45.632 38.4469 45.8144 38.6719 45.8144H44.7423C44.9673 45.8144 45.1496 45.632 45.1496 45.4071V44.4684C45.1496 44.2434 44.9673 44.061 44.7423 44.061Z" fill="white"/>
<path opacity="0.3" d="M44.7423 41.2715H38.6719C38.4469 41.2715 38.2645 41.4539 38.2645 41.6789V42.6176C38.2645 42.8426 38.4469 43.0249 38.6719 43.0249H44.7423C44.9673 43.0249 45.1496 42.8426 45.1496 42.6176V41.6789C45.1496 41.4539 44.9673 41.2715 44.7423 41.2715Z" fill="white"/>
<path opacity="0.3" d="M44.7423 38.4866H38.6719C38.4469 38.4866 38.2645 38.6689 38.2645 38.8939V39.8326C38.2645 40.0576 38.4469 40.24 38.6719 40.24H44.7423C44.9673 40.24 45.1496 40.0576 45.1496 39.8326V38.8939C45.1496 38.6689 44.9673 38.4866 44.7423 38.4866Z" fill="white"/>
<path opacity="0.3" d="M44.7423 35.7015H38.6719C38.4469 35.7015 38.2645 35.8838 38.2645 36.1088V37.0475C38.2645 37.2725 38.4469 37.4549 38.6719 37.4549H44.7423C44.9673 37.4549 45.1496 37.2725 45.1496 37.0475V36.1088C45.1496 35.8838 44.9673 35.7015 44.7423 35.7015Z" fill="white"/>
<path opacity="0.3" d="M44.7423 32.912H38.6719C38.4469 32.912 38.2645 33.0944 38.2645 33.3193V34.258C38.2645 34.483 38.4469 34.6654 38.6719 34.6654H44.7423C44.9673 34.6654 45.1496 34.483 45.1496 34.258V33.3193C45.1496 33.0944 44.9673 32.912 44.7423 32.912Z" fill="white"/>
<path opacity="0.3" d="M44.7423 30.127H38.6719C38.4469 30.127 38.2645 30.3093 38.2645 30.5343V31.473C38.2645 31.6979 38.4469 31.8803 38.6719 31.8803H44.7423C44.9673 31.8803 45.1496 31.6979 45.1496 31.473V30.5343C45.1496 30.3093 44.9673 30.127 44.7423 30.127Z" fill="white"/>
<path opacity="0.3" d="M44.7423 27.342H38.6719C38.4469 27.342 38.2645 27.5244 38.2645 27.7493V28.688C38.2645 28.913 38.4469 29.0954 38.6719 29.0954H44.7423C44.9673 29.0954 45.1496 28.913 45.1496 28.688V27.7493C45.1496 27.5244 44.9673 27.342 44.7423 27.342Z" fill="white"/>
<path opacity="0.3" d="M44.7423 24.5524H38.6719C38.4469 24.5524 38.2645 24.7348 38.2645 24.9598V25.8984C38.2645 26.1234 38.4469 26.3058 38.6719 26.3058H44.7423C44.9673 26.3058 45.1496 26.1234 45.1496 25.8984V24.9598C45.1496 24.7348 44.9673 24.5524 44.7423 24.5524Z" fill="white"/>
<path opacity="0.3" d="M44.7423 21.7675H38.6719C38.4469 21.7675 38.2645 21.9498 38.2645 22.1748V23.1135C38.2645 23.3385 38.4469 23.5208 38.6719 23.5208H44.7423C44.9673 23.5208 45.1496 23.3385 45.1496 23.1135V22.1748C45.1496 21.9498 44.9673 21.7675 44.7423 21.7675Z" fill="white"/>
<path opacity="0.3" d="M44.7423 18.9824H38.6719C38.4469 18.9824 38.2645 19.1648 38.2645 19.3898V20.3285C38.2645 20.5534 38.4469 20.7358 38.6719 20.7358H44.7423C44.9673 20.7358 45.1496 20.5534 45.1496 20.3285V19.3898C45.1496 19.1648 44.9673 18.9824 44.7423 18.9824Z" fill="white"/>
<path opacity="0.3" d="M44.7423 16.1929H38.6719C38.4469 16.1929 38.2645 16.3752 38.2645 16.6002V17.5389C38.2645 17.7639 38.4469 17.9462 38.6719 17.9462H44.7423C44.9673 17.9462 45.1496 17.7639 45.1496 17.5389V16.6002C45.1496 16.3752 44.9673 16.1929 44.7423 16.1929Z" fill="white"/>
</g>
<g opacity="0.5">
<path opacity="0.3" d="M35.0768 66.3546H29.0064C28.7814 66.3546 28.599 66.537 28.599 66.762V67.7007C28.599 67.9256 28.7814 68.108 29.0064 68.108H35.0768C35.3017 68.108 35.4841 67.9256 35.4841 67.7007V66.762C35.4841 66.537 35.3017 66.3546 35.0768 66.3546Z" fill="white"/>
<path opacity="0.3" d="M35.0768 63.5696H29.0064C28.7814 63.5696 28.599 63.752 28.599 63.977V64.9157C28.599 65.1406 28.7814 65.323 29.0064 65.323H35.0768C35.3017 65.323 35.4841 65.1406 35.4841 64.9157V63.977C35.4841 63.752 35.3017 63.5696 35.0768 63.5696Z" fill="white"/>
<path opacity="0.3" d="M35.0768 60.7801H29.0064C28.7814 60.7801 28.599 60.9625 28.599 61.1874V62.1261C28.599 62.3511 28.7814 62.5335 29.0064 62.5335H35.0768C35.3017 62.5335 35.4841 62.3511 35.4841 62.1261V61.1874C35.4841 60.9625 35.3017 60.7801 35.0768 60.7801Z" fill="white"/>
<path opacity="0.3" d="M35.0768 57.9951H29.0064C28.7814 57.9951 28.599 58.1775 28.599 58.4025V59.3412C28.599 59.5661 28.7814 59.7485 29.0064 59.7485H35.0768C35.3017 59.7485 35.4841 59.5661 35.4841 59.3412V58.4025C35.4841 58.1775 35.3017 57.9951 35.0768 57.9951Z" fill="white"/>
<path opacity="0.3" d="M35.0768 55.2057H29.0064C28.7814 55.2057 28.599 55.3881 28.599 55.613V56.5517C28.599 56.7767 28.7814 56.9591 29.0064 56.9591H35.0768C35.3017 56.9591 35.4841 56.7767 35.4841 56.5517V55.613C35.4841 55.3881 35.3017 55.2057 35.0768 55.2057Z" fill="white"/>
<path opacity="0.3" d="M35.0768 52.4206H29.0064C28.7814 52.4206 28.599 52.603 28.599 52.8279V53.7666C28.599 53.9916 28.7814 54.174 29.0064 54.174H35.0768C35.3017 54.174 35.4841 53.9916 35.4841 53.7666V52.8279C35.4841 52.603 35.3017 52.4206 35.0768 52.4206Z" fill="white"/>
<path opacity="0.3" d="M35.0768 49.6356H29.0064C28.7814 49.6356 28.599 49.8179 28.599 50.0429V50.9816C28.599 51.2066 28.7814 51.3889 29.0064 51.3889H35.0768C35.3017 51.3889 35.4841 51.2066 35.4841 50.9816V50.0429C35.4841 49.8179 35.3017 49.6356 35.0768 49.6356Z" fill="white"/>
<path opacity="0.3" d="M35.0768 46.8461H29.0064C28.7814 46.8461 28.599 47.0285 28.599 47.2534V48.1921C28.599 48.4171 28.7814 48.5995 29.0064 48.5995H35.0768C35.3017 48.5995 35.4841 48.4171 35.4841 48.1921V47.2534C35.4841 47.0285 35.3017 46.8461 35.0768 46.8461Z" fill="white"/>
<path opacity="0.3" d="M35.0768 44.061H29.0064C28.7814 44.061 28.599 44.2434 28.599 44.4684V45.4071C28.599 45.632 28.7814 45.8144 29.0064 45.8144H35.0768C35.3017 45.8144 35.4841 45.632 35.4841 45.4071V44.4684C35.4841 44.2434 35.3017 44.061 35.0768 44.061Z" fill="white"/>
<path opacity="0.3" d="M35.0768 41.2715H29.0064C28.7814 41.2715 28.599 41.4539 28.599 41.6789V42.6176C28.599 42.8426 28.7814 43.0249 29.0064 43.0249H35.0768C35.3017 43.0249 35.4841 42.8426 35.4841 42.6176V41.6789C35.4841 41.4539 35.3017 41.2715 35.0768 41.2715Z" fill="white"/>
<path opacity="0.3" d="M35.0773 38.4865H29.0068C28.7819 38.4865 28.5995 38.6689 28.5995 38.8939V39.8325C28.5995 40.0575 28.7819 40.2399 29.0068 40.2399H35.0773C35.3022 40.2399 35.4846 40.0575 35.4846 39.8325V38.8939C35.4846 38.6689 35.3022 38.4865 35.0773 38.4865Z" fill="white"/>
</g>
<g opacity="0.5">
<path opacity="0.3" d="M25.1229 66.3546H19.0524C18.8275 66.3546 18.6451 66.537 18.6451 66.762V67.7007C18.6451 67.9256 18.8275 68.108 19.0524 68.108H25.1229C25.3478 68.108 25.5302 67.9256 25.5302 67.7007V66.762C25.5302 66.537 25.3478 66.3546 25.1229 66.3546Z" fill="white"/>
<path opacity="0.3" d="M25.1229 63.5696H19.0524C18.8275 63.5696 18.6451 63.7519 18.6451 63.9769V64.9156C18.6451 65.1406 18.8275 65.323 19.0524 65.323H25.1229C25.3478 65.323 25.5302 65.1406 25.5302 64.9156V63.9769C25.5302 63.7519 25.3478 63.5696 25.1229 63.5696Z" fill="white"/>
<path opacity="0.3" d="M25.1229 60.7802H19.0524C18.8275 60.7802 18.6451 60.9625 18.6451 61.1875V62.1262C18.6451 62.3511 18.8275 62.5335 19.0524 62.5335H25.1229C25.3478 62.5335 25.5302 62.3511 25.5302 62.1262V61.1875C25.5302 60.9625 25.3478 60.7802 25.1229 60.7802Z" fill="white"/>
<path opacity="0.3" d="M25.1229 57.9951H19.0524C18.8275 57.9951 18.6451 58.1775 18.6451 58.4024V59.3411C18.6451 59.5661 18.8275 59.7484 19.0524 59.7484H25.1229C25.3478 59.7484 25.5302 59.5661 25.5302 59.3411V58.4024C25.5302 58.1775 25.3478 57.9951 25.1229 57.9951Z" fill="white"/>
<path opacity="0.3" d="M25.1233 55.2056H19.0529C18.8279 55.2056 18.6455 55.388 18.6455 55.613V56.5516C18.6455 56.7766 18.8279 56.959 19.0529 56.959H25.1233C25.3483 56.959 25.5306 56.7766 25.5306 56.5516V55.613C25.5306 55.388 25.3483 55.2056 25.1233 55.2056Z" fill="white"/>
</g>
<g opacity="0.5">
<path opacity="0.3" d="M15.4573 66.3546H9.38691C9.16194 66.3546 8.97955 66.537 8.97955 66.7619V67.7006C8.97955 67.9256 9.16194 68.1079 9.38691 68.1079H15.4573C15.6823 68.1079 15.8647 67.9256 15.8647 67.7006V66.7619C15.8647 66.537 15.6823 66.3546 15.4573 66.3546Z" fill="white"/>
<path opacity="0.3" d="M15.4573 63.5695H9.38691C9.16194 63.5695 8.97955 63.7519 8.97955 63.9769V64.9155C8.97955 65.1405 9.16194 65.3229 9.38691 65.3229H15.4573C15.6823 65.3229 15.8647 65.1405 15.8647 64.9155V63.9769C15.8647 63.7519 15.6823 63.5695 15.4573 63.5695Z" fill="white"/>
<path opacity="0.3" d="M15.4573 60.7801H9.38691C9.16194 60.7801 8.97955 60.9625 8.97955 61.1874V62.1261C8.97955 62.3511 9.16194 62.5335 9.38691 62.5335H15.4573C15.6823 62.5335 15.8647 62.3511 15.8647 62.1261V61.1874C15.8647 60.9625 15.6823 60.7801 15.4573 60.7801Z" fill="white"/>
<path opacity="0.3" d="M15.4573 57.995H9.38691C9.16194 57.995 8.97955 58.1774 8.97955 58.4024V59.341C8.97955 59.566 9.16194 59.7484 9.38691 59.7484H15.4573C15.6823 59.7484 15.8647 59.566 15.8647 59.341V58.4024C15.8647 58.1774 15.6823 57.995 15.4573 57.995Z" fill="white"/>
<path opacity="0.3" d="M15.4573 55.2056H9.38691C9.16194 55.2056 8.97955 55.3879 8.97955 55.6129V56.5516C8.97955 56.7766 9.16194 56.959 9.38691 56.959H15.4573C15.6823 56.959 15.8647 56.7766 15.8647 56.5516V55.6129C15.8647 55.3879 15.6823 55.2056 15.4573 55.2056Z" fill="white"/>
<path opacity="0.3" d="M15.4573 52.4205H9.38691C9.16194 52.4205 8.97955 52.6029 8.97955 52.8279V53.7666C8.97955 53.9915 9.16194 54.1739 9.38691 54.1739H15.4573C15.6823 54.1739 15.8647 53.9915 15.8647 53.7666V52.8279C15.8647 52.6029 15.6823 52.4205 15.4573 52.4205Z" fill="white"/>
<path opacity="0.3" d="M15.4573 49.6354H9.38691C9.16194 49.6354 8.97955 49.8178 8.97955 50.0428V50.9815C8.97955 51.2064 9.16194 51.3888 9.38691 51.3888H15.4573C15.6823 51.3888 15.8647 51.2064 15.8647 50.9815V50.0428C15.8647 49.8178 15.6823 49.6354 15.4573 49.6354Z" fill="white"/>
<path opacity="0.3" d="M15.4573 46.8459H9.38691C9.16194 46.8459 8.97955 47.0283 8.97955 47.2533V48.192C8.97955 48.417 9.16194 48.5993 9.38691 48.5993H15.4573C15.6823 48.5993 15.8647 48.417 15.8647 48.192V47.2533C15.8647 47.0283 15.6823 46.8459 15.4573 46.8459Z" fill="white"/>
<path opacity="0.3" d="M15.4576 44.061H9.38722C9.16224 44.061 8.97986 44.2433 8.97986 44.4683V45.407C8.97986 45.632 9.16224 45.8144 9.38722 45.8144H15.4576C15.6826 45.8144 15.865 45.632 15.865 45.407V44.4683C15.865 44.2433 15.6826 44.061 15.4576 44.061Z" fill="white"/>
</g>
<g opacity="0.5">
<path opacity="0.3" d="M6.47777 66.3547H0.407357C0.182383 66.3547 0 66.5371 0 66.762V67.7007C0 67.9257 0.182383 68.1081 0.407357 68.1081H6.47777C6.70275 68.1081 6.88512 67.9257 6.88512 67.7007V66.762C6.88512 66.5371 6.70275 66.3547 6.47777 66.3547Z" fill="white"/>
<path opacity="0.3" d="M6.47777 63.5696H0.407357C0.182383 63.5696 0 63.752 0 63.977V64.9157C0 65.1406 0.182383 65.323 0.407357 65.323H6.47777C6.70275 65.323 6.88512 65.1406 6.88512 64.9157V63.977C6.88512 63.752 6.70275 63.5696 6.47777 63.5696Z" fill="white"/>
<path opacity="0.3" d="M6.47777 60.7802H0.407357C0.182383 60.7802 0 60.9625 0 61.1875V62.1262C0 62.3511 0.182383 62.5335 0.407357 62.5335H6.47777C6.70275 62.5335 6.88512 62.3511 6.88512 62.1262V61.1875C6.88512 60.9625 6.70275 60.7802 6.47777 60.7802Z" fill="white"/>
<path opacity="0.3" d="M6.47777 57.9951H0.407357C0.182383 57.9951 0 58.1775 0 58.4025V59.3412C0 59.5661 0.182383 59.7485 0.407357 59.7485H6.47777C6.70275 59.7485 6.88512 59.5661 6.88512 59.3412V58.4025C6.88512 58.1775 6.70275 57.9951 6.47777 57.9951Z" fill="white"/>
<path opacity="0.3" d="M6.47777 55.2056H0.407357C0.182383 55.2056 0 55.388 0 55.613V56.5516C0 56.7766 0.182383 56.959 0.407357 56.959H6.47777C6.70275 56.959 6.88512 56.7766 6.88512 56.5516V55.613C6.88512 55.388 6.70275 55.2056 6.47777 55.2056Z" fill="white"/>
<path opacity="0.3" d="M6.47777 52.4206H0.407357C0.182383 52.4206 0 52.603 0 52.8279V53.7666C0 53.9916 0.182383 54.174 0.407357 54.174H6.47777C6.70275 54.174 6.88512 53.9916 6.88512 53.7666V52.8279C6.88512 52.603 6.70275 52.4206 6.47777 52.4206Z" fill="white"/>
<path opacity="0.3" d="M6.47777 49.6355H0.407357C0.182383 49.6355 0 49.8179 0 50.0428V50.9815C0 51.2065 0.182383 51.3889 0.407357 51.3889H6.47777C6.70275 51.3889 6.88512 51.2065 6.88512 50.9815V50.0428C6.88512 49.8179 6.70275 49.6355 6.47777 49.6355Z" fill="white"/>
<path opacity="0.3" d="M6.47851 46.8461H0.40809C0.183116 46.8461 0.000732422 47.0285 0.000732422 47.2534V48.1921C0.000732422 48.4171 0.183116 48.5995 0.40809 48.5995H6.47851C6.70348 48.5995 6.88586 48.4171 6.88586 48.1921V47.2534C6.88586 47.0285 6.70348 46.8461 6.47851 46.8461Z" fill="white"/>
</g>
<path d="M82.2284 21.9983C81.9956 21.9993 81.765 21.9524 81.5498 21.8601C81.3347 21.7679 81.1394 21.6323 80.9752 21.4611C80.1255 20.579 79.1165 19.8792 78.0058 19.4017C76.8951 18.9242 75.7045 18.6785 74.5021 18.6785C73.2998 18.6785 72.1092 18.9242 70.9985 19.4017C69.8878 19.8792 68.8787 20.579 68.029 21.4611C67.6963 21.8061 67.245 22 66.7744 22C66.3038 22 65.8525 21.8061 65.5197 21.4611C65.1869 21.116 65 20.6481 65 20.1601C65 19.6721 65.1869 19.2041 65.5197 18.8591C66.6988 17.6356 68.0989 16.6651 69.6399 16.003C71.1809 15.3408 72.8326 15 74.5007 15C76.1687 15 77.8205 15.3408 79.3615 16.003C80.9024 16.6651 82.3025 17.6356 83.4817 18.8591C83.7293 19.1164 83.8978 19.4439 83.9661 19.8004C84.0343 20.1569 83.9992 20.5264 83.8651 20.8623C83.731 21.1981 83.504 21.4852 83.2127 21.6874C82.9215 21.8896 82.579 21.9978 82.2284 21.9983V21.9983Z" fill="white"/>
<path d="M60.734 16.9983C60.3909 16.9977 60.0557 16.8865 59.7706 16.6787C59.4855 16.471 59.2633 16.1759 59.132 15.8308C59.0008 15.4857 58.9664 15.106 59.0332 14.7396C59.1 14.3732 59.265 14.0366 59.5073 13.7722C61.4744 11.6255 63.8111 9.92232 66.3837 8.76024C68.9563 7.59816 71.7141 7 74.4993 7C77.2845 7 80.0424 7.59816 82.615 8.76024C85.1875 9.92232 87.5242 11.6255 89.4913 13.7722C89.817 14.1268 90 14.6077 90 15.1092C90 15.6107 89.817 16.0916 89.4913 16.4462C89.33 16.6218 89.1386 16.761 88.9279 16.8561C88.7171 16.9511 88.4913 17 88.2632 17C87.8026 17 87.3609 16.8008 87.0351 16.4462C85.3898 14.6522 83.4358 13.2289 81.2848 12.2578C79.1337 11.2867 76.828 10.7869 74.4993 10.7869C72.1707 10.7869 69.8649 11.2867 67.7139 12.2578C65.5629 13.2289 63.6088 14.6522 61.9635 16.4462C61.8021 16.6219 61.6104 16.7612 61.3994 16.8559C61.1884 16.9507 60.9623 16.999 60.734 16.9983V16.9983Z" fill="white"/>
<path d="M93.3165 10.9985C93.0954 10.9988 92.8764 10.957 92.672 10.8754C92.4676 10.7938 92.282 10.674 92.1256 10.5229C89.748 8.21963 86.9232 6.39218 83.8133 5.14529C80.7033 3.89839 77.3692 3.25656 74.002 3.25656C70.6348 3.25656 67.3007 3.89839 64.1908 5.14529C61.0808 6.39218 58.2561 8.21963 55.8784 10.5229C55.5622 10.8284 55.1333 11 54.6861 11C54.239 11 53.8101 10.8284 53.4939 10.5229C53.1776 10.2174 53 9.80313 53 9.37112C53 8.93912 53.1776 8.52481 53.4939 8.21933C56.1846 5.61389 59.3809 3.54678 62.8998 2.13638C66.4186 0.725984 70.1909 0 74.0007 0C77.8104 0 81.5827 0.725984 85.1015 2.13638C88.6204 3.54678 91.8167 5.61389 94.5074 8.21933C94.7427 8.4471 94.9029 8.73709 94.9677 9.05271C95.0326 9.36833 94.9992 9.69544 94.8718 9.99275C94.7444 10.2901 94.5287 10.5443 94.2519 10.7233C93.9751 10.9023 93.6496 10.998 93.3165 10.9985V10.9985Z" fill="white"/>
<path d="M81.5502 68.999H66.4498C66.2626 69.0051 66.0756 68.9838 65.9001 68.9364C65.7246 68.889 65.5642 68.8164 65.4287 68.723C65.2932 68.6296 65.1854 68.5174 65.1117 68.3932C65.038 68.2689 65 68.1352 65 68C65 67.8649 65.038 67.7311 65.1117 67.6068C65.1854 67.4826 65.2932 67.3704 65.4287 67.277C65.5642 67.1836 65.7246 67.111 65.9001 67.0636C66.0756 67.0162 66.2626 66.9949 66.4498 67.001H81.5502C81.7374 66.9949 81.9244 67.0162 82.0999 67.0636C82.2754 67.111 82.4358 67.1836 82.5713 67.277C82.7068 67.3704 82.8146 67.4826 82.8883 67.6068C82.962 67.7311 83 67.8649 83 68C83 68.1352 82.962 68.2689 82.8883 68.3932C82.8146 68.5174 82.7068 68.6296 82.5713 68.723C82.4358 68.8164 82.2754 68.889 82.0999 68.9364C81.9244 68.9838 81.7374 69.0051 81.5502 68.999V68.999Z" fill="white"/>
<path d="M74 69C73.7362 69 73.4831 68.8568 73.2958 68.6016C73.1085 68.3464 73.0022 67.9999 73 67.6375V56.3739C73 56.0095 73.1054 55.6601 73.2929 55.4024C73.4804 55.1447 73.7348 55 74 55C74.2652 55 74.5196 55.1447 74.7071 55.4024C74.8946 55.6601 75 56.0095 75 56.3739V67.6375C74.9978 67.9999 74.8915 68.3464 74.7042 68.6016C74.5169 68.8568 74.2638 69 74 69Z" fill="white"/>
<path d="M74.0763 58H73.9395C72.372 58.0008 70.8198 57.6508 69.3714 56.9701C67.9231 56.2893 66.607 55.2912 65.4982 54.0326C64.3895 52.774 63.5099 51.2796 62.9097 49.6348C62.3095 47.99 62.0003 46.227 62 44.4465C62 44.0629 62.1342 43.6949 62.373 43.4237C62.6118 43.1524 62.9357 43 63.2734 43C63.6111 43 63.935 43.1524 64.1738 43.4237C64.4126 43.6949 64.5468 44.0629 64.5468 44.4465C64.5475 47.2736 65.5365 49.9847 67.2963 51.9837C69.0562 53.9828 71.4428 55.1062 73.9316 55.107H74.0684C76.5572 55.1062 78.9438 53.9828 80.7037 51.9837C82.4635 49.9847 83.4525 47.2736 83.4532 44.4465C83.4532 44.0629 83.5874 43.6949 83.8262 43.4237C84.065 43.1524 84.3889 43 84.7266 43C85.0643 43 85.3882 43.1524 85.627 43.4237C85.8658 43.6949 86 44.0629 86 44.4465C85.9993 48.0409 84.742 51.4878 82.5045 54.0294C80.2671 56.571 77.2326 57.9992 74.0684 58H74.0763Z" fill="white"/>
<path d="M77.2543 44.4019V42.7031H81V41.0043H77.2543V39.3054H81V37.5956H77.2543V35.8968H81V34.1869H77.2543V32.4826H81V32.1692C81 30.2678 80.2701 28.4443 78.9708 27.0998C77.6715 25.7553 75.9092 25 74.0717 25H73.9336C72.0961 25 70.3339 25.7553 69.0346 27.0998C67.7353 28.4443 67.0053 30.2678 67.0053 32.1692V32.4826H70.7457V34.1814H67V35.8913H70.7404V37.5901H67V39.2999H70.7404V41.0043H67V42.7141H70.7404V44.4129H67V44.8445C67.0035 46.7435 67.735 48.5635 69.0339 49.905C70.3329 51.2466 72.0931 52 73.9283 52H74.0664C74.9765 52.0007 75.8778 51.8159 76.7188 51.4561C77.5598 51.0963 78.3241 50.5686 78.9679 49.9031C79.6118 49.2376 80.1227 48.4473 80.4714 47.5775C80.82 46.7076 80.9997 45.7752 81 44.8335V44.4019H77.2543Z" fill="white"/>
</svg>
